<svg width="50" height="50" viewBox="0 0 50 50" fill="none" xmlns="http://www.w3.org/2000/svg">
    <path d="M18.7499 35.4166V43.75L24.9999 39.5833L31.2499 43.75V35.4166M29.077 8.90621L28.4041 7.98121C28.0132 7.44488 27.5011 7.00851 26.9095 6.70766C26.3179 6.40681 25.6636 6.25 24.9999 6.25C24.3363 6.25 23.682 6.40681 23.0904 6.70766C22.4988 7.00851 21.9867 7.44488 21.5958 7.98121L20.9229 8.90621L19.7916 8.72913C19.1361 8.62575 18.4654 8.67887 17.8343 8.88416C17.2032 9.08945 16.6296 9.44108 16.1603 9.91035C15.6911 10.3796 15.3394 10.9532 15.1341 11.5843C14.9289 12.2154 14.8757 12.8861 14.9791 13.5416L15.1562 14.6729L14.2312 15.3458C13.6941 15.7362 13.257 16.2481 12.9556 16.8398C12.6542 17.4314 12.4971 18.086 12.4971 18.75C12.4971 19.4139 12.6542 20.0685 12.9556 20.6602C13.257 21.2518 13.6941 21.7637 14.2312 22.1541L15.1562 22.827L14.9791 23.9562C14.8754 24.6119 14.9282 25.2828 15.1333 25.9142C15.3385 26.5456 15.69 27.1195 16.1594 27.589C16.6287 28.0585 17.2024 28.4103 17.8337 28.6157C18.465 28.8211 19.1359 28.8743 19.7916 28.7708L20.9229 28.5937L21.5958 29.5187C21.9867 30.055 22.4988 30.4914 23.0904 30.7923C23.682 31.0931 24.3363 31.2499 24.9999 31.2499C25.6636 31.2499 26.3179 31.0931 26.9095 30.7923C27.5011 30.4914 28.0132 30.055 28.4041 29.5187L29.077 28.5937L30.2062 28.7708C30.8619 28.8745 31.5328 28.8217 32.1642 28.6166C32.7956 28.4114 33.3694 28.0599 33.839 27.5906C34.3085 27.1212 34.6603 26.5475 34.8657 25.9162C35.0711 25.2849 35.1242 24.614 35.0208 23.9583L34.8437 22.827L35.7687 22.1541C36.305 21.7632 36.7414 21.2511 37.0422 20.6595C37.3431 20.0679 37.4999 19.4136 37.4999 18.75C37.4999 18.0863 37.3431 17.432 37.0422 16.8404C36.7414 16.2488 36.305 15.7367 35.7687 15.3458L34.8437 14.6729L35.0208 13.5437C35.1245 12.888 35.0717 12.2171 34.8665 11.5857C34.6614 10.9543 34.3098 10.3805 33.8405 9.91094C33.3712 9.44142 32.7975 9.08959 32.1662 8.8842C31.5349 8.6788 30.864 8.62566 30.2083 8.72913L29.077 8.90621Z" stroke="white" stroke-width="4" stroke-linecap="round" stroke-linejoin="round" />
</svg>
