<svg width="72" height="72" viewBox="0 0 72 72" fill="none" xmlns="http://www.w3.org/2000/svg">
    <path d="M45.0001 66L43.3351 68.496C43.7869 68.7975 44.3121 68.9706 44.8545 68.9969C45.397 69.0233 45.9365 68.9019 46.4154 68.6457C46.8943 68.3894 47.2946 68.008 47.5737 67.5421C47.8528 67.0761 48.0002 66.5432 48.0001 66H45.0001ZM36.0001 60L37.6651 57.504C37.1721 57.1751 36.5927 56.9996 36.0001 56.9996C35.4074 56.9996 34.8281 57.1751 34.3351 57.504L36.0001 60ZM27.0001 66H24.0001C24 66.5432 24.1474 67.0761 24.4265 67.5421C24.7056 68.008 25.1059 68.3894 25.5848 68.6457C26.0637 68.9019 26.6032 69.0233 27.1456 68.9969C27.6881 68.9706 28.2133 68.7975 28.6651 68.496L27.0001 66ZM46.6651 63.504L37.6651 57.504L34.3351 62.496L43.3351 68.496L46.6651 63.504ZM34.3351 57.504L25.3351 63.504L28.6651 68.496L37.6651 62.496L34.3351 57.504ZM38.2861 10.314L38.4121 10.464L42.9811 6.57604L42.8551 6.42604L38.2861 10.314ZM45.9871 13.602L46.1821 13.587L45.7021 7.60504L45.5071 7.62004L45.9871 13.602ZM49.4131 16.818L49.3981 17.013L55.3801 17.493L55.3951 17.298L49.4131 16.818ZM52.5361 24.588L52.6861 24.714L56.5741 20.145L56.4241 20.019L52.5361 24.588ZM52.6861 29.286L52.5361 29.412L56.4241 33.981L56.5741 33.855L52.6861 29.286ZM49.3981 36.987L49.4131 37.182L55.3951 36.702L55.3801 36.507L49.3981 36.987ZM46.1821 40.413L45.9871 40.398L45.5071 46.38L45.7021 46.395L46.1821 40.413ZM38.4121 43.536L38.2861 43.686L42.8551 47.574L42.9811 47.424L38.4121 43.536ZM33.7141 43.686L33.5881 43.536L29.0191 47.424L29.1451 47.574L33.7141 43.686ZM26.0131 40.398L25.8181 40.413L26.2981 46.395L26.4931 46.38L26.0131 40.398ZM22.5871 37.182L22.6021 36.987L16.6201 36.507L16.6051 36.702L22.5871 37.182ZM19.4641 29.412L19.3141 29.286L15.4261 33.855L15.5761 33.981L19.4641 29.412ZM19.3141 24.714L19.4641 24.588L15.5761 20.019L15.4261 20.145L19.3141 24.714ZM22.6021 17.013L22.5871 16.818L16.6051 17.298L16.6201 17.493L22.6021 17.013ZM25.8181 13.587L26.0101 13.602L26.4931 7.62004L26.2981 7.60504L25.8181 13.587ZM33.5881 10.464L33.7141 10.314L29.1451 6.42604L29.0191 6.57604L33.5881 10.464ZM26.0101 13.602C27.431 13.7163 28.8617 13.4913 30.1787 12.9458C31.4957 12.4002 32.6642 11.5496 33.5881 10.464L29.0191 6.57604C28.7108 6.93768 28.3211 7.22091 27.8819 7.40242C27.4427 7.58393 26.9667 7.65851 26.4931 7.62004L26.0101 13.602ZM22.5871 16.818C22.5522 16.3849 22.6119 15.9493 22.7619 15.5415C22.912 15.1337 23.1488 14.7633 23.4561 14.456C23.7634 14.1488 24.1337 13.9119 24.5416 13.7619C24.9494 13.6118 25.3849 13.5522 25.8181 13.587L26.2981 7.60504C24.9989 7.50091 23.6926 7.68022 22.4694 8.13056C21.2463 8.5809 20.1356 9.29153 19.2142 10.2133C18.2927 11.1351 17.5824 12.246 17.1324 13.4692C16.6825 14.6925 16.5006 15.9989 16.6051 17.298L22.5871 16.818ZM19.4641 24.588C20.5497 23.6641 21.4003 22.4956 21.9458 21.1786C22.4914 19.8617 22.7163 18.4339 22.6021 17.013L16.6201 17.493C16.6586 17.9667 16.584 18.4427 16.4025 18.8818C16.221 19.321 15.9377 19.7108 15.5761 20.019L19.4641 24.588ZM19.3141 29.286C18.9827 29.0044 18.7165 28.6541 18.5339 28.2594C18.3514 27.8646 18.2568 27.4349 18.2568 27C18.2568 26.5651 18.3514 26.1354 18.5339 25.7407C18.7165 25.346 18.9827 24.9957 19.3141 24.714L15.4261 20.145C14.4329 20.9899 13.6352 22.0405 13.0882 23.2242C12.5411 24.4078 12.2578 25.6961 12.2578 27C12.2578 28.304 12.5411 29.5923 13.0882 30.7759C13.6352 31.9595 14.4329 33.0101 15.4261 33.855L19.3141 29.286ZM22.6021 36.987C22.7163 35.5661 22.4914 34.1384 21.9458 32.8214C21.4003 31.5045 20.5497 30.3359 19.4641 29.412L15.5761 33.981C15.9377 34.2893 16.221 34.6791 16.4025 35.1182C16.584 35.5574 16.6586 36.0334 16.6201 36.507L22.6021 36.987ZM25.8181 40.413C25.3849 40.4479 24.9494 40.3882 24.5416 40.2382C24.1337 40.0882 23.7634 39.8513 23.4561 39.544C23.1488 39.2368 22.912 38.8664 22.7619 38.4586C22.6119 38.0507 22.5522 37.6152 22.5871 37.182L16.6051 36.702C16.501 38.0012 16.6803 39.3076 17.1306 40.5307C17.581 41.7538 18.2916 42.8645 19.2133 43.786C20.1351 44.7075 21.246 45.4177 22.4693 45.8677C23.6925 46.3177 24.9989 46.4966 26.2981 46.392L25.8181 40.413ZM38.2861 43.683C38.0045 44.0144 37.6541 44.2806 37.2594 44.4632C36.8647 44.6457 36.435 44.7403 36.0001 44.7403C35.5652 44.7403 35.1355 44.6457 34.7408 44.4632C34.346 44.2806 33.9957 44.0144 33.7141 43.683L29.1451 47.574C29.99 48.5672 31.0406 49.3649 32.2242 49.9119C33.4078 50.459 34.6962 50.7423 36.0001 50.7423C37.304 50.7423 38.5924 50.459 39.776 49.9119C40.9596 49.3649 42.0102 48.5672 42.8551 47.574L38.2861 43.683ZM49.4131 37.182C49.448 37.6155 49.3913 38.0513 49.2411 38.4593C49.0909 38.8674 48.8537 39.2379 48.5461 39.5453C48.2385 39.8526 47.8678 40.0894 47.4596 40.2392C47.0514 40.389 46.6155 40.4484 46.1821 40.413L45.7021 46.395C47.0013 46.4992 48.3076 46.3199 49.5307 45.8695C50.7538 45.4192 51.8645 44.7085 52.786 43.7868C53.7075 42.865 54.4178 41.7541 54.8678 40.5308C55.3177 39.3076 55.4996 38.0012 55.3951 36.702L49.4131 37.182ZM52.5361 29.412C51.4505 30.3359 50.5999 31.5045 50.0544 32.8214C49.5088 34.1384 49.2839 35.5661 49.3981 36.987L55.3801 36.507C55.3416 36.0334 55.4162 35.5574 55.5977 35.1182C55.7792 34.6791 56.0625 34.2893 56.4241 33.981L52.5361 29.412ZM52.6861 24.714C53.0175 24.9957 53.2837 25.346 53.4662 25.7407C53.6488 26.1354 53.7434 26.5651 53.7434 27C53.7434 27.4349 53.6488 27.8646 53.4662 28.2594C53.2837 28.6541 53.0175 29.0044 52.6861 29.286L56.5741 33.855C57.5672 33.0101 58.3649 31.9595 58.912 30.7759C59.459 29.5923 59.7424 28.304 59.7424 27C59.7424 25.6961 59.459 24.4078 58.912 23.2242C58.3649 22.0405 57.5672 20.9899 56.5741 20.145L52.6861 24.714ZM49.3981 17.013C49.2839 18.4339 49.5088 19.8617 50.0544 21.1786C50.5999 22.4956 51.4505 23.6641 52.5361 24.588L56.4241 20.019C56.0625 19.7108 55.7792 19.321 55.5977 18.8818C55.4162 18.4427 55.3416 17.9667 55.3801 17.493L49.3981 17.013ZM46.1821 13.587C46.6152 13.5522 47.0508 13.6118 47.4586 13.7619C47.8664 13.9119 48.2368 14.1488 48.5441 14.456C48.8514 14.7633 49.0882 15.1337 49.2383 15.5415C49.3883 15.9493 49.448 16.3849 49.4131 16.818L55.3951 17.298C55.4992 15.9988 55.3199 14.6925 54.8696 13.4694C54.4192 12.2463 53.7086 11.1356 52.7868 10.2141C51.8651 9.29262 50.7541 8.58234 49.5309 8.13238C48.3077 7.68241 47.0013 7.50051 45.7021 7.60504L46.1821 13.587ZM38.4121 10.464C39.336 11.5496 40.5045 12.4002 41.8215 12.9458C43.1385 13.4913 44.5662 13.7163 45.9871 13.602L45.5071 7.62004C45.0335 7.65851 44.5575 7.58393 44.1183 7.40242C43.6791 7.22091 43.2894 6.93768 42.9811 6.57604L38.4121 10.464ZM42.8551 6.42604C42.0102 5.4334 40.9567 4.63614 39.7734 4.08941C38.5901 3.54268 37.3021 3.25952 35.9986 3.25952C34.6951 3.25952 33.4071 3.54268 32.2238 4.08941C31.0404 4.63614 29.99 5.4334 29.1451 6.42604L33.7141 10.314C33.9957 9.98264 34.346 9.71644 34.7408 9.53388C35.1355 9.35132 35.5652 9.25677 36.0001 9.25677C36.435 9.25677 36.8647 9.35132 37.2594 9.53388C37.6541 9.71644 38.0045 9.98264 38.2861 10.314L42.8551 6.42604ZM33.5881 43.536C32.7867 42.5942 31.7999 41.8276 30.6891 41.2841C29.5784 40.7406 28.3675 40.4318 27.1321 40.377L26.8681 46.371C27.2797 46.3894 27.6832 46.4924 28.0532 46.6736C28.4233 46.8548 28.7521 47.1102 29.0191 47.424L33.5881 43.536ZM27.1321 40.38C26.759 40.3638 26.3853 40.3708 26.0131 40.401L26.4931 46.383C26.6178 46.3722 26.743 46.3692 26.8681 46.374L27.1321 40.38ZM30.0001 66V43.374H24.0001V66H30.0001ZM45.9871 40.398C45.6139 40.3677 45.2422 40.3607 44.8681 40.377L45.1321 46.371C45.2572 46.3662 45.3824 46.3692 45.5071 46.38L45.9871 40.398ZM44.8681 40.377C43.6327 40.4318 42.4218 40.7406 41.3111 41.2841C40.2003 41.8276 39.2134 42.5942 38.4121 43.536L42.9811 47.424C43.2484 47.1108 43.5773 46.8559 43.9473 46.6752C44.3174 46.4946 44.7207 46.3921 45.1321 46.374L44.8681 40.377ZM42.0001 43.377V66H48.0001V43.374L42.0001 43.377Z" fill="#E8461A" />
    <path d="M42 24L33 33L30 30" stroke="#E8461A" stroke-width="4" stroke-linecap="round" stroke-linejoin="round" />
</svg>
