<svg width="41" height="40" viewBox="0 0 41 40" fill="none" xmlns="http://www.w3.org/2000/svg">
    <path d="M20.4999 22.125C20.2499 22.125 19.9999 22 19.7499 21.875L11.3749 16C10.7499 15.625 10.6249 14.875 11.1249 14.25C11.4999 13.625 12.2499 13.5 12.8749 14L20.4999 19.375L28.1249 14C28.7499 13.625 29.4999 13.75 29.8749 14.25C30.2499 14.875 30.1249 15.625 29.6249 16L21.2499 21.875C20.9999 22 20.7499 22.125 20.4999 22.125Z" fill="white" />
    <path d="M33.875 32.875H7.125C4.625 32.875 2.5 30.875 2.5 28.25V11.625C2.5 9.125 4.5 7 7.125 7H33.75C36.25 7 38.375 9 38.375 11.625V28.25C38.375 30.875 36.375 32.875 33.875 32.875ZM7.125 9.625C6 9.625 5 10.5 5 11.75V28.375C5 29.5 5.875 30.5 7.125 30.5H33.75C34.875 30.5 35.875 29.625 35.875 28.375V11.625C35.875 10.5 35 9.5 33.75 9.5H7.125V9.625Z" fill="white" />
</svg>
