<svg width="50" height="50" viewBox="0 0 50 50" fill="none" xmlns="http://www.w3.org/2000/svg">
    <path d="M33.333 18.75C33.333 29.8541 16.6663 29.8541 16.6663 18.75H20.833C20.833 24.3125 29.1663 24.3125 29.1663 18.75M41.6663 37.5V43.75H8.33301V37.5C8.33301 31.9375 19.4372 29.1666 24.9997 29.1666C30.5622 29.1666 41.6663 31.9375 41.6663 37.5ZM37.708 37.5C37.708 36.1666 31.1872 33.125 24.9997 33.125C18.8122 33.125 12.2913 36.1666 12.2913 37.5V39.7916H37.708M26.0413 4.16663C26.6247 4.16663 27.083 4.62496 27.083 5.20829V11.4583H29.1663V6.24996C30.6407 6.9323 31.876 8.04203 32.7119 9.43514C33.5477 10.8282 33.9456 12.4404 33.8538 14.0625C33.8538 14.0625 35.3122 14.3541 35.4163 16.6666H14.583C14.583 14.3541 16.1455 14.0625 16.1455 14.0625C16.0537 12.4404 16.4516 10.8282 17.2875 9.43514C18.1233 8.04203 19.3586 6.9323 20.833 6.24996V11.4583H22.9163V5.20829C22.9163 4.62496 23.3747 4.16663 23.958 4.16663" fill="white" />
</svg>
