<svg width="72" height="72" viewBox="0 0 72 72" fill="none" xmlns="http://www.w3.org/2000/svg">
    <path d="M39 39H45C45.7957 39 46.5588 39.3161 47.1214 39.8787C47.684 40.4413 48 41.2043 48 42C48 42.7957 47.684 43.5587 47.1214 44.1213C46.5588 44.6839 45.7957 45 45 45H36C35.6057 45.0012 35.2151 44.9244 34.8506 44.7741C34.4861 44.6237 34.1549 44.4028 33.8761 44.124C33.5973 43.8452 33.3763 43.514 33.226 43.1495C33.0756 42.7849 32.9989 42.3943 33 42V30C33 29.2044 33.3161 28.4413 33.8787 27.8787C34.4413 27.3161 35.2044 27 36 27C36.7957 27 37.5588 27.3161 38.1214 27.8787C38.684 28.4413 39 29.2044 39 30V39ZM17.607 26.583C16.9216 26.2651 16.3272 25.7797 15.8787 25.1716C15.4303 24.5635 15.1421 23.8522 15.0409 23.1035C14.9397 22.3547 15.0287 21.5925 15.2996 20.8871C15.5705 20.1818 16.0147 19.556 16.5912 19.0675C17.1676 18.579 17.8578 18.2436 18.5981 18.0921C19.3383 17.9406 20.1048 17.9779 20.8268 18.2006C21.5488 18.4233 22.2032 18.8243 22.7294 19.3665C23.2557 19.9087 23.6369 20.5747 23.838 21.303C24.9194 20.6676 26.0488 20.1179 27.2161 19.659C25.904 18.7473 24.9174 17.4404 24.4 15.9289C23.8826 14.4173 23.8614 12.78 24.3396 11.2555C24.8177 9.73105 25.7702 8.39911 27.0582 7.45377C28.3461 6.50844 29.9024 5.99911 31.5 6H40.5C42.0977 5.99911 43.6539 6.50844 44.9419 7.45377C46.2299 8.39911 47.1824 9.73105 47.6605 11.2555C48.1387 12.78 48.1175 14.4173 47.6001 15.9289C47.0827 17.4404 46.0961 18.7473 44.784 19.659C45.9561 20.121 47.082 20.669 48.162 21.303C48.3632 20.5747 48.7444 19.9087 49.2707 19.3665C49.7969 18.8243 50.4512 18.4233 51.1733 18.2006C51.8953 17.9779 52.6618 17.9406 53.402 18.0921C54.1423 18.2436 54.8325 18.579 55.4089 19.0675C55.9854 19.556 56.4296 20.1818 56.7005 20.8871C56.9714 21.5925 57.0604 22.3547 56.9592 23.1035C56.858 23.8522 56.5698 24.5635 56.1214 25.1716C55.6729 25.7797 55.0785 26.2651 54.393 26.583C57.3267 30.0835 59.2006 34.3485 59.7947 38.8769C60.3887 43.4054 59.6783 48.0094 57.7468 52.1481C55.8154 56.2869 52.743 59.7886 48.8906 62.242C45.0383 64.6954 40.5658 65.9987 35.9986 65.9987C31.4313 65.9987 26.9588 64.6954 23.1065 62.242C19.2541 59.7886 16.1817 56.2869 14.2503 52.1481C12.3188 48.0094 11.6084 43.4054 12.2024 38.8769C12.7965 34.3485 14.6734 30.0835 17.607 26.583ZM36 60C40.7739 60 45.3523 58.1036 48.728 54.7279C52.1036 51.3523 54 46.7739 54 42C54 37.2261 52.1036 32.6477 48.728 29.2721C45.3523 25.8964 40.7739 24 36 24C31.2262 24 26.6478 25.8964 23.2721 29.2721C19.8965 32.6477 18 37.2261 18 42C18 46.7739 19.8965 51.3523 23.2721 54.7279C26.6478 58.1036 31.2262 60 36 60ZM31.5 12C31.1022 12 30.7207 12.158 30.4394 12.4393C30.1581 12.7206 30 13.1022 30 13.5C30 13.8978 30.1581 14.2794 30.4394 14.5607C30.7207 14.842 31.1022 15 31.5 15H40.5C40.8979 15 41.2794 14.842 41.5607 14.5607C41.842 14.2794 42 13.8978 42 13.5C42 13.1022 41.842 12.7206 41.5607 12.4393C41.2794 12.158 40.8979 12 40.5 12H31.5Z" fill="#E8461A" />
</svg>
