<svg width="50" height="50" viewBox="0 0 50 50" fill="none" xmlns="http://www.w3.org/2000/svg">
    <path d="M25.4999 6.17705C25.2685 6.17743 25.0401 6.22921 24.8311 6.32865C24.6221 6.42809 24.4379 6.5727 24.2916 6.75205L24.1708 6.84163C21.9053 6.15333 19.4959 6.09065 17.1978 6.66023C14.8996 7.22982 12.7984 8.41045 11.1166 10.077C9.62727 11.5532 8.5197 13.3697 7.88958 15.3697C7.25946 17.3696 7.12572 19.493 7.49993 21.5562L7.46868 21.5875L5.47285 23.5687C5.06121 23.9773 4.7345 24.4633 4.51156 24.9988C4.28861 25.5342 4.17383 26.1085 4.17383 26.6885C4.17383 27.2685 4.28861 27.8428 4.51156 28.3782C4.7345 28.9137 5.06121 29.3997 5.47285 29.8083C5.95795 30.2892 6.54708 30.6522 7.19475 30.8693C7.84242 31.0864 8.53132 31.1518 9.20827 31.0604C9.44959 31.939 9.95554 32.7221 10.6574 33.3032C11.3592 33.8842 12.2229 34.2352 13.1312 34.3083C13.2245 35.3766 13.7016 36.3749 14.474 37.1187C15.2465 37.8624 16.2622 38.3013 17.3333 38.3541C17.3874 39.4083 17.8187 40.4458 18.6291 41.25C20.2124 42.825 22.6958 42.9604 24.4353 41.6604L25.2416 42.4604C26.0805 43.2924 27.2142 43.7593 28.3958 43.7593C29.5773 43.7593 30.711 43.2924 31.5499 42.4604C32.3208 41.6916 32.752 40.7145 32.8416 39.7145C33.8809 39.6257 34.8557 39.1735 35.5948 38.4374C36.3339 37.7014 36.7901 36.7285 36.8833 35.6895C37.7988 35.6048 38.6654 35.2377 39.3633 34.6391C40.0612 34.0405 40.556 33.2399 40.7791 32.3479C41.4459 32.4272 42.122 32.3548 42.7569 32.1362C43.3918 31.9176 43.9691 31.5584 44.4458 31.0854C44.8571 30.6768 45.1835 30.1909 45.4063 29.6557C45.6291 29.1204 45.7437 28.5464 45.7437 27.9666C45.7437 27.3869 45.6291 26.8128 45.4063 26.2776C45.1835 25.7423 44.8571 25.2565 44.4458 24.8479L42.7103 23.1208L43.0687 21.7333C43.8443 18.7139 43.4538 15.5131 41.9749 12.7687C40.8992 10.7763 39.3042 9.11224 37.359 7.95316C35.4139 6.79408 33.1913 6.18322 30.927 6.18538H27.5791C27.4361 6.17892 27.293 6.17614 27.1499 6.17705H25.4999ZM31.5937 16.4791L38.8103 23.6479L38.8166 23.6583L38.8458 23.6854L42.2312 27.05C42.3521 27.17 42.4481 27.3128 42.5136 27.4702C42.5791 27.6275 42.6128 27.7962 42.6128 27.9666C42.6128 28.137 42.5791 28.3058 42.5136 28.4631C42.4481 28.6204 42.3521 28.7632 42.2312 28.8833C41.9855 29.1263 41.6538 29.2626 41.3083 29.2626C40.9627 29.2626 40.6311 29.1263 40.3853 28.8833L36.9999 25.5187C36.705 25.2266 36.3067 25.0627 35.8916 25.0627C35.4765 25.0627 35.0782 25.2266 34.7833 25.5187L34.7499 25.5541C34.6045 25.6982 34.489 25.8697 34.4103 26.0587C34.3315 26.2477 34.2909 26.4504 34.2909 26.6552C34.2909 26.8599 34.3315 27.0626 34.4103 27.2516C34.489 27.4406 34.6045 27.6121 34.7499 27.7562L37.3874 30.377C37.509 30.4972 37.6055 30.6403 37.6714 30.798C37.7373 30.9557 37.7712 31.1249 37.7712 31.2958C37.7712 31.4667 37.7373 31.6359 37.6714 31.7936C37.6055 31.9513 37.509 32.0944 37.3874 32.2145C37.1644 32.4353 36.8697 32.5689 36.5567 32.5911C36.2437 32.6133 35.9331 32.5225 35.6812 32.3354C35.3779 32.1088 35.0031 31.999 34.6255 32.0262C34.2479 32.0533 33.8927 32.2156 33.6249 32.4833C33.358 32.7501 33.1976 33.1052 33.1739 33.4818C33.1501 33.8585 33.2645 34.2309 33.4958 34.5291C33.6879 34.7786 33.7824 35.0897 33.7613 35.4039C33.7402 35.7182 33.605 36.0138 33.3812 36.2354C33.1548 36.4598 32.8544 36.5941 32.5362 36.6132C32.218 36.6324 31.9037 36.5351 31.652 36.3395C31.3508 36.1046 30.9746 35.9871 30.5932 36.009C30.2119 36.0308 29.8515 36.1905 29.5791 36.4583C29.3076 36.7254 29.144 37.0831 29.1194 37.4631C29.0948 37.8431 29.211 38.2189 29.4458 38.5187C29.6426 38.772 29.7398 39.0887 29.7191 39.4088C29.6984 39.7289 29.5611 40.0304 29.3333 40.2562C29.0837 40.503 28.7468 40.6415 28.3958 40.6415C28.0447 40.6415 27.7079 40.503 27.4583 40.2562L26.6833 39.4875L26.902 39.2687C27.3133 38.8601 27.6398 38.3742 27.8625 37.839C28.0853 37.3037 28.2 36.7297 28.2 36.15C28.2 35.5702 28.0853 34.9962 27.8625 34.4609C27.6398 33.9257 27.3133 33.4398 26.902 33.0312C26.1229 32.2556 25.0835 31.7967 23.9853 31.7437C23.9255 30.6735 23.4802 29.6612 22.7319 28.8937C21.9837 28.1263 20.9829 27.6556 19.9145 27.5687C19.8299 26.5251 19.3738 25.5464 18.6291 24.8104C18.144 24.3295 17.5549 23.9664 16.9072 23.7494C16.2595 23.5323 15.5706 23.4669 14.8937 23.5583C14.6302 22.5988 14.0519 21.7558 13.2517 21.1645C12.4515 20.5732 11.4757 20.268 10.4812 20.2979C10.3222 18.8325 10.4961 17.3501 10.99 15.9613C11.4838 14.5725 12.2848 13.3131 13.3333 12.277C14.3099 11.3073 15.4774 10.5511 16.7616 10.0562C18.0458 9.56127 19.4189 9.33852 20.7937 9.40205L17.6749 11.7625C17.1681 12.146 16.7422 12.626 16.4216 13.1749C16.101 13.7237 15.8921 14.3305 15.8069 14.9603C15.7217 15.5902 15.7619 16.2307 15.9251 16.8449C16.0884 17.4592 16.3716 18.0351 16.7583 18.5395C17.5393 19.5576 18.6912 20.2255 19.9627 20.3977C21.2342 20.5698 22.5222 20.2321 23.5458 19.4583L27.4812 16.477L31.5937 16.4791ZM19.5603 14.2562L26.0999 9.30205H27.1499C27.2799 9.30147 27.4098 9.30494 27.5395 9.31246H30.927C32.6267 9.31018 34.2953 9.76795 35.7558 10.6372C37.2163 11.5065 38.4144 12.7549 39.2228 14.25C40.2541 16.1666 40.577 18.3708 40.1479 20.4895L33.4583 13.8312C33.3127 13.6804 33.1382 13.5605 32.9453 13.4785C32.7524 13.3966 32.5449 13.3543 32.3353 13.3541H26.9583C26.6176 13.354 26.2862 13.4652 26.0145 13.6708L21.6603 16.9687C21.2952 17.2443 20.836 17.3645 20.3826 17.3033C19.9293 17.242 19.5185 17.0042 19.2395 16.6416C19.1033 16.4641 19.0035 16.2614 18.946 16.0452C18.8885 15.8289 18.8743 15.6034 18.9043 15.3817C18.9344 15.16 19.008 14.9463 19.1209 14.7532C19.2339 14.56 19.3839 14.3911 19.5624 14.2562M12.5749 30.827C12.454 30.707 12.358 30.5642 12.2925 30.4069C12.227 30.2495 12.1933 30.0808 12.1933 29.9104C12.1933 29.74 12.227 29.5712 12.2925 29.4139C12.358 29.2566 12.454 29.1138 12.5749 28.9937L14.5687 27.0145C14.8144 26.7715 15.146 26.6353 15.4916 26.6353C15.8372 26.6353 16.1688 26.7715 16.4145 27.0145C16.6553 27.2541 16.7921 27.5788 16.7952 27.9184C16.7983 28.258 16.6675 28.5852 16.4312 28.8291L16.4145 28.8479L14.4208 30.827L14.402 30.8458C14.155 31.0809 13.8261 31.2107 13.4851 31.2076C13.1441 31.2045 12.8176 31.0687 12.5749 30.8291M11.552 23.8125C11.7872 24.0568 11.9168 24.3839 11.9129 24.723C11.909 25.0621 11.7719 25.3861 11.5312 25.625L9.53743 27.6083C9.29172 27.8513 8.96009 27.9876 8.61452 27.9876C8.26894 27.9876 7.93731 27.8513 7.6916 27.6083C7.57066 27.4882 7.47467 27.3454 7.40917 27.1881C7.34367 27.0308 7.30995 26.862 7.30995 26.6916C7.30995 26.5212 7.34367 26.3525 7.40917 26.1952C7.47467 26.0378 7.57066 25.895 7.6916 25.775L9.68743 23.7937C9.93314 23.5507 10.2648 23.4144 10.6103 23.4144C10.9559 23.4144 11.2876 23.5507 11.5333 23.7937L11.552 23.8125ZM22.6937 39.05C22.448 39.293 22.1163 39.4293 21.7708 39.4293C21.4252 39.4293 21.0936 39.293 20.8478 39.05C20.7269 38.9299 20.6309 38.7871 20.5654 38.6298C20.4999 38.4724 20.4662 38.3037 20.4662 38.1333C20.4662 37.9629 20.4999 37.7941 20.5654 37.6368C20.6309 37.4795 20.7269 37.3367 20.8478 37.2166L22.8416 35.2354C23.0873 34.9924 23.4189 34.8561 23.7645 34.8561C24.1101 34.8561 24.4417 34.9924 24.6874 35.2354C24.8084 35.3554 24.9044 35.4982 24.9699 35.6556C25.0354 35.8129 25.0691 35.9816 25.0691 36.152C25.0691 36.3225 25.0354 36.4912 24.9699 36.6485C24.9044 36.8058 24.8084 36.9487 24.6874 37.0687L22.6937 39.05ZM18.4833 34.8666C18.2376 35.1096 17.9059 35.2459 17.5603 35.2459C17.2148 35.2459 16.8831 35.1096 16.6374 34.8666C16.3957 34.6273 16.2582 34.3023 16.2547 33.9622C16.2512 33.622 16.382 33.2942 16.6187 33.05L16.6374 33.0333L18.6312 31.052L18.6478 31.0333C18.8952 30.7978 19.2247 30.668 19.5662 30.6715C19.9078 30.675 20.2345 30.8115 20.477 31.052C20.598 31.1721 20.6939 31.3149 20.7594 31.4722C20.8249 31.6296 20.8587 31.7983 20.8587 31.9687C20.8587 32.1391 20.8249 32.3079 20.7594 32.4652C20.6939 32.6225 20.598 32.7653 20.477 32.8854L18.4833 34.8666Z" fill="white" />
</svg>
