<svg width="39" height="40" viewBox="0 0 39 40" fill="none" xmlns="http://www.w3.org/2000/svg">
    <path d="M33.1559 17.625C33.0371 17.5 33.0371 17.5 33.0371 17.5C33.0371 9.625 26.9809 3.25 19.4996 3.25C12.0184 3.25 5.96211 9.625 5.96211 17.5V17.625H5.84336C4.06211 18.125 2.75586 19.75 2.75586 21.75V24.875C2.75586 26.875 4.06211 28.5 5.84336 29L8.57461 29.75C8.69336 29.75 8.93086 29.75 9.04961 29.75C9.40586 29.75 9.88086 29.625 10.1184 29.375C10.5934 29 10.8309 28.5 10.8309 27.875V18.75C10.8309 18.125 10.5934 17.625 10.1184 17.25C9.64336 16.875 9.04961 16.75 8.57461 16.875L7.74336 17.125C7.98086 10.5 13.0871 5.125 19.4996 5.125C25.9121 5.125 31.0184 10.5 31.2559 17.125L30.4246 16.875C29.8309 16.75 29.2371 16.875 28.8809 17.25C28.4059 17.625 28.1684 18.125 28.1684 18.75V27.875C28.1684 28.5 28.4059 29 28.8809 29.375C29.2371 29.625 29.5934 29.75 29.9496 29.75C30.0684 29.75 30.3059 29.75 30.4246 29.75L31.2559 29.5V30C31.2559 31.375 30.1871 32.375 28.9996 32.375H24.9621C24.6059 30.875 23.2996 29.875 21.8746 29.875H17.1246C15.3434 29.875 13.7996 31.375 13.7996 33.375C13.7996 35.375 15.2246 36.875 17.1246 36.875H21.8746C23.4184 36.875 24.6059 35.875 24.9621 34.375H28.9996C31.2559 34.375 33.0371 32.5 33.0371 30.125V29.25H32.6809L33.1559 29.125C34.9371 28.625 36.2434 27 36.2434 25V21.875C36.2434 19.75 34.9371 18.125 33.1559 17.625ZM9.16836 18.75L9.04961 27.875L6.31836 27.125C5.24961 26.875 4.53711 25.875 4.53711 24.75V21.625C4.53711 20.5 5.24961 19.625 6.31836 19.25L9.16836 18.75ZM21.8746 34.875H17.1246C16.2934 34.875 15.6996 34.125 15.6996 33.375C15.6996 32.625 16.4121 31.875 17.1246 31.875H21.8746C22.7059 31.875 23.2996 32.625 23.2996 33.375C23.2996 34.125 22.7059 34.875 21.8746 34.875ZM34.4621 24.875C34.4621 26 33.7496 26.875 32.6809 27.25L29.8309 27.875L29.9496 18.75L32.6809 19.5C33.7496 19.75 34.4621 20.75 34.4621 21.875V24.875Z" fill="white"></path>
</svg>
