<svg width="50" height="50" viewBox="0 0 50 50" fill="none" xmlns="http://www.w3.org/2000/svg">
    <path d="M20.2379 44.0476H29.7617M24.9998 5.95236V3.57141M36.9045 10.7143L39.2855 8.33332M13.095 10.7143L10.7141 8.33332M36.9045 32.1428L39.2855 34.5238M13.095 32.1428L10.7141 34.5238M8.3331 20.2381H5.95215M44.0474 20.2381H41.6664M24.9998 11.9047C27.4172 11.9033 29.764 12.7193 31.659 14.2203C33.5539 15.7213 34.8856 17.8191 35.4376 20.1726C35.9896 22.5261 35.7294 24.9972 34.6994 27.1842C33.6694 29.3712 31.9301 31.1456 29.7641 32.219L29.7617 34.5238C29.7617 35.7867 29.26 36.9979 28.3669 37.891C27.4739 38.784 26.2627 39.2857 24.9998 39.2857C23.7368 39.2857 22.5256 38.784 21.6326 37.891C20.7396 36.9979 20.2379 35.7867 20.2379 34.5238V32.219C18.072 31.1457 16.3328 29.3715 15.3028 27.1847C14.2727 24.998 14.0124 22.5272 14.5641 20.1738C15.1157 17.8204 16.447 15.7226 18.3415 14.2214C20.2361 12.7203 22.5826 11.9038 24.9998 11.9047Z" stroke="white" stroke-width="3.2" stroke-linecap="round" stroke-linejoin="round" />
</svg>
