<svg width="48" height="49" viewBox="0 0 48 49" fill="none" xmlns="http://www.w3.org/2000/svg">
    <path d="M24 33.2707L25.8373 31.4333L20.2373 25.8333H33.3333V23.1667H20.2373L25.8373 17.5667L24 15.7293L15.2293 24.5L24 33.2707ZM24.008 48.5C20.6889 48.5 17.5689 47.8707 14.648 46.612C11.7271 45.3516 9.18578 43.6413 7.024 41.4813C4.86222 39.3213 3.15111 36.7827 1.89067 33.8653C0.630222 30.948 0 27.8289 0 24.508C0 21.1871 0.630222 18.0671 1.89067 15.148C3.14933 12.2271 4.85689 9.68578 7.01333 7.524C9.16978 5.36222 11.7093 3.65111 14.632 2.39067C17.5547 1.13022 20.6747 0.5 23.992 0.5C27.3093 0.5 30.4293 1.13022 33.352 2.39067C36.2729 3.64933 38.8142 5.35778 40.976 7.516C43.1378 9.67422 44.8489 12.2138 46.1093 15.1347C47.3698 18.0556 48 21.1747 48 24.492C48 27.8093 47.3707 30.9293 46.112 33.852C44.8533 36.7747 43.1431 39.316 40.9813 41.476C38.8196 43.636 36.2809 45.3471 33.3653 46.6093C30.4498 47.8716 27.3307 48.5018 24.008 48.5ZM24 45.8333C29.9556 45.8333 35 43.7667 39.1333 39.6333C43.2667 35.5 45.3333 30.4556 45.3333 24.5C45.3333 18.5444 43.2667 13.5 39.1333 9.36667C35 5.23333 29.9556 3.16667 24 3.16667C18.0444 3.16667 13 5.23333 8.86667 9.36667C4.73333 13.5 2.66667 18.5444 2.66667 24.5C2.66667 30.4556 4.73333 35.5 8.86667 39.6333C13 43.7667 18.0444 45.8333 24 45.8333Z" fill="white" />
</svg>
