<svg width="41" height="40" viewBox="0 0 41 40" fill="none" xmlns="http://www.w3.org/2000/svg">
    <path d="M20.5 38.125L19.625 37.25C19.125 36.75 5.875 24.125 5.875 16.375C5.875 8.375 12.5 1.875 20.5 1.875C28.5 1.875 35.125 8.375 35.125 16.5C35.125 24.25 22 36.875 21.375 37.375L20.5 38.125ZM20.5 4.375C13.875 4.375 8.375 9.75 8.375 16.5C8.375 21.75 16.375 30.75 20.5 34.75C24.5 30.75 32.625 21.625 32.625 16.5C32.625 9.75 27.125 4.375 20.5 4.375Z" fill="white" />
    <path d="M20.5 19.375C18.875 19.375 17.625 18.125 17.625 16.5C17.625 14.875 18.875 13.625 20.5 13.625C22.125 13.625 23.375 14.875 23.375 16.5C23.375 18.125 22.125 19.375 20.5 19.375ZM20.5 16C20.25 16 20.125 16.125 20.125 16.375C20.125 16.625 20.25 16.75 20.5 16.75C20.75 16.75 20.875 16.625 20.875 16.375C20.875 16.25 20.75 16 20.5 16Z" fill="white" />
</svg>
