<svg width="48" height="49" viewBox="0 0 48 49" fill="none" xmlns="http://www.w3.org/2000/svg">
    <path d="M24 15.7293L22.1627 17.5667L27.7627 23.1667L14.6667 23.1667L14.6667 25.8333L27.7627 25.8333L22.1627 31.4333L24 33.2707L32.7707 24.5L24 15.7293ZM23.992 0.500006C27.3111 0.500006 30.4311 1.12934 33.352 2.38801C36.2729 3.64845 38.8142 5.35867 40.976 7.51867C43.1378 9.67867 44.8489 12.2173 46.1093 15.1347C47.3698 18.052 48 21.1711 48 24.492C48 27.8129 47.3698 30.9329 46.1093 33.852C44.8507 36.7729 43.1431 39.3142 40.9867 41.476C38.8302 43.6378 36.2907 45.3489 33.368 46.6093C30.4453 47.8698 27.3253 48.5 24.008 48.5C20.6907 48.5 17.5707 47.8698 14.648 46.6093C11.7271 45.3507 9.18578 43.6422 7.024 41.484C4.86223 39.3258 3.15111 36.7862 1.89066 33.8653C0.63022 30.9444 1.80744e-06 27.8253 2.09745e-06 24.508C2.38746e-06 21.1907 0.629336 18.0707 1.888 15.148C3.14667 12.2253 4.85689 9.68401 7.01867 7.52401C9.18045 5.36401 11.7191 3.65289 14.6347 2.39067C17.5502 1.12845 20.6693 0.498228 23.992 0.500006ZM24 3.16667C18.0444 3.16667 13 5.23334 8.86667 9.36667C4.73334 13.5 2.66667 18.5444 2.66667 24.5C2.66667 30.4556 4.73333 35.5 8.86667 39.6333C13 43.7667 18.0444 45.8333 24 45.8333C29.9556 45.8333 35 43.7667 39.1333 39.6333C43.2667 35.5 45.3333 30.4556 45.3333 24.5C45.3333 18.5444 43.2667 13.5 39.1333 9.36668C35 5.23334 29.9556 3.16667 24 3.16667Z" fill="white" />
</svg>
