<svg width="31" height="30" viewBox="0 0 31 30" fill="none" xmlns="http://www.w3.org/2000/svg">
    <path d="M10.1875 17.3125L13.1875 20.3125M10.1875 17.3125C10.1875 17.3125 11.9588 12.885 14.48 9.8125M10.1875 17.3125C3.66375 15.6813 9.525 9.8125 14.48 9.8125M13.1875 20.3125C13.1875 20.3125 17.615 18.5412 20.6875 16.02M13.1875 20.3125C14.8187 26.835 20.6875 20.975 20.6875 16.02M14.48 9.8125C17.03 6.705 21.2337 5.3125 25.1875 5.3125C25.1875 9.26625 23.795 13.4688 20.6875 16.02M18.5625 11.8212L19.4462 10.9375M7.39875 20.72C6.20875 21.7213 5.8125 24.6937 5.8125 24.6937C5.8125 24.6937 8.7775 24.2962 9.77625 23.1037C10.3387 22.4362 10.3312 21.4112 9.705 20.7912C9.39538 20.5002 8.99009 20.3323 8.56536 20.3192C8.14063 20.3061 7.72574 20.4486 7.39875 20.72Z" stroke="black" stroke-width="1.875" stroke-linecap="round" stroke-linejoin="round" />
</svg>
