<svg width="26" height="26" viewBox="0 0 26 26" fill="none" xmlns="http://www.w3.org/2000/svg">
    <path fill-rule="evenodd" clip-rule="evenodd" d="M17.6856 16.1406L23.5139 21.9689C23.7188 22.1739 23.8338 22.4519 23.8337 22.7417C23.8336 23.0315 23.7184 23.3094 23.5134 23.5143C23.3084 23.7191 23.0304 23.8342 22.7406 23.8341C22.4508 23.834 22.1728 23.7187 21.968 23.5137L16.1397 17.6854C14.3973 19.0349 12.2064 19.6699 10.0125 19.4614C7.81855 19.2528 5.78649 18.2163 4.32968 16.5626C2.87287 14.909 2.10073 12.7625 2.17034 10.5598C2.23996 8.35712 3.1461 6.26367 4.70443 4.70534C6.26275 3.14702 8.35621 2.24088 10.5589 2.17126C12.7616 2.10164 14.9081 2.87378 16.5617 4.33059C18.2154 5.78741 19.2519 7.81946 19.4605 10.0134C19.669 12.2073 19.034 14.3983 17.6845 16.1406M10.8335 17.3333C12.5574 17.3333 14.2107 16.6485 15.4297 15.4295C16.6487 14.2105 17.3335 12.5572 17.3335 10.8333C17.3335 9.10941 16.6487 7.45611 15.4297 6.23713C14.2107 5.01814 12.5574 4.33332 10.8335 4.33332C9.10958 4.33332 7.45628 5.01814 6.2373 6.23713C5.01831 7.45611 4.33349 9.10941 4.33349 10.8333C4.33349 12.5572 5.01831 14.2105 6.2373 15.4295C7.45628 16.6485 9.10958 17.3333 10.8335 17.3333Z" fill="white" />
</svg>
