<svg width="21" height="20" viewBox="0 0 21 20" fill="none" xmlns="http://www.w3.org/2000/svg">
    <path d="M18.6792 3.8678C18.6044 3.78213 18.5127 3.71288 18.4098 3.66443C18.307 3.61597 18.1952 3.58936 18.0815 3.58626C16.3161 3.54011 14.0823 1.65242 12.6054 0.911646C11.693 0.455492 11.0907 0.154723 10.6384 0.0754924C10.5466 0.0618223 10.4533 0.0620817 10.3615 0.0762616C9.9092 0.155492 9.30689 0.456262 8.39535 0.912415C6.91843 1.65242 4.68458 3.54011 2.9192 3.58626C2.80548 3.58971 2.69369 3.61648 2.59074 3.66491C2.4878 3.71334 2.3959 3.7824 2.32074 3.8678C2.16516 4.04418 2.08482 4.27446 2.09689 4.50934C2.47612 12.2193 5.24151 16.9909 10.0938 19.764C10.22 19.8355 10.36 19.8724 10.4992 19.8724C10.6384 19.8724 10.7784 19.8355 10.9054 19.764C15.7577 16.9909 18.5223 12.2193 18.9023 4.50934C18.9154 4.27445 18.8352 4.04388 18.6792 3.8678ZM14.8207 6.90011L10.7261 12.9424C10.5792 13.1593 10.3484 13.3032 10.12 13.3032C9.89151 13.3032 9.63612 13.1778 9.47535 13.017L6.5892 10.1301C6.49497 10.0355 6.44206 9.90746 6.44206 9.77395C6.44206 9.64045 6.49497 9.51238 6.5892 9.4178L7.30228 8.70318C7.39725 8.6097 7.52517 8.5573 7.65843 8.5573C7.79169 8.5573 7.91961 8.6097 8.01458 8.70318L9.89151 10.5801L13.1523 5.76703C13.2277 5.65689 13.3437 5.58108 13.4748 5.55614C13.606 5.53121 13.7417 5.55918 13.8523 5.63395L14.6869 6.20011C14.7972 6.27543 14.8731 6.39134 14.8982 6.5225C14.9233 6.65366 14.8954 6.78942 14.8207 6.90011Z" fill="#03071E" />
</svg>
