<svg width="72" height="60" viewBox="0 0 72 60" fill="none" xmlns="http://www.w3.org/2000/svg">
    <g clip-path="url(#clip0_68_2125)">
        <mask id="path-1-outside-1_68_2125" maskUnits="userSpaceOnUse" x="-1" y="2" width="74" height="56" fill="black">
            <rect fill="white" x="-1" y="2" width="74" height="56" />
            <path d="M0 49.5146C0.237262 48.5233 0.703511 47.5993 1.36248 46.8144C2.02145 46.0296 2.85537 45.4051 3.79936 44.9895C4.1884 44.8264 4.16357 44.5003 4.16357 44.1742C4.16357 42.0788 4.16357 39.9834 4.16357 37.888C4.20616 31.6175 6.23145 25.5159 9.9578 20.4318C13.5591 15.375 18.6077 11.4892 24.4599 9.26989C24.7444 9.19135 24.9983 9.03042 25.1887 8.80797C25.3791 8.58552 25.4972 8.31184 25.5277 8.02244C25.7925 6.62884 26.5375 5.36799 27.637 4.45292C28.7364 3.53784 30.1228 3.02463 31.562 3C34.4922 3 37.4142 3 40.3361 3C41.7774 3.019 43.1676 3.52881 44.2706 4.44285C45.3736 5.35688 46.1214 6.6188 46.387 8.01428C46.4164 8.30375 46.533 8.57795 46.7218 8.80167C46.9106 9.0254 47.1629 9.18845 47.4465 9.26989C51.3871 10.7577 54.9866 13.0053 58.034 15.881C61.0814 18.7567 63.5154 22.2026 65.1934 26.0168C66.8485 29.6437 67.7223 33.5692 67.7594 37.5455C67.7594 39.7388 67.7594 41.9239 67.7594 44.1171C67.7319 44.3288 67.7774 44.5435 67.8884 44.7268C67.9995 44.9101 68.1697 45.0514 68.3719 45.1281C69.6529 45.724 70.694 46.7258 71.3288 47.9733C71.9635 49.2209 72.1553 50.642 71.8733 52.0095C71.5835 53.432 70.7975 54.7097 69.6514 55.6211C68.5054 56.5324 67.0717 57.0201 65.599 56.9993C45.8489 56.9993 26.1016 56.9993 6.35709 56.9993C4.98758 57.0195 3.64917 56.5965 2.54719 55.7953C1.44521 54.9941 0.640532 53.8589 0.2566 52.5639C0.192131 52.3673 0.117533 52.1741 0.0331043 51.985L0 49.5146ZM16.944 19.0131C14.3067 21.5058 12.204 24.4946 10.7607 27.8023C9.43454 30.7836 8.6877 33.9833 8.5589 37.2357C8.48441 39.2903 8.5589 41.3124 8.49268 43.3915C8.49268 44.484 8.49269 44.484 9.57704 44.484H62.3625C62.528 44.484 62.6936 44.484 62.8591 44.484C63.2647 44.484 63.4468 44.3535 63.4468 43.9296C63.5297 41.1862 63.4717 38.4405 63.273 35.7029C62.7048 30.2296 60.4421 25.0607 56.7917 20.8965C56.262 20.2768 55.666 19.7061 55.0038 19.0212C55.0038 19.3066 55.0038 19.4371 55.0038 19.5757V25.7966C55.0221 26.1673 54.9368 26.5359 54.7573 26.8622C54.5778 27.1885 54.3109 27.4601 53.9857 27.6474C53.6621 27.862 53.2831 27.9814 52.8932 27.9915C52.5033 28.0016 52.1185 27.902 51.7839 27.7045C51.4387 27.527 51.1519 27.2564 50.957 26.9243C50.762 26.5923 50.667 26.2125 50.683 25.8292C50.683 22.6495 50.683 19.4697 50.683 16.2817C50.7019 16.0784 50.6574 15.8742 50.5553 15.6964C50.4532 15.5187 50.2985 15.3758 50.1118 15.287C49.1765 14.7734 48.2328 14.2597 47.2561 13.8031C46.6849 13.5341 46.5442 13.6808 46.5442 14.276C46.5442 17.2927 46.5442 20.3095 46.5442 23.3343C46.5442 25.5439 46.5442 27.7616 46.5442 29.9711C46.554 30.2602 46.5024 30.5481 46.3927 30.8164C46.2831 31.0847 46.1178 31.3275 45.9074 31.5293C45.6971 31.7311 45.4463 31.8875 45.1711 31.9884C44.896 32.0894 44.6024 32.1326 44.3093 32.1154C44.0158 32.1091 43.7268 32.0429 43.4605 31.9211C43.1942 31.7993 42.9564 31.6246 42.762 31.4078C42.5676 31.1911 42.4209 30.9371 42.331 30.6617C42.2412 30.3864 42.2102 30.0958 42.2399 29.8081C42.2399 23.1441 42.2399 16.4828 42.2399 9.82431C42.2399 7.97352 41.4701 7.22341 39.5829 7.22341C37.1769 7.22341 34.7681 7.22341 32.3566 7.22341C30.4777 7.22341 29.7079 7.98167 29.7079 9.83247C29.7079 12.042 29.7079 14.2597 29.7079 16.4693C29.7079 20.9644 29.7079 25.4596 29.7079 29.9548C29.7204 30.2377 29.6738 30.5201 29.5712 30.7846C29.4685 31.049 29.3119 31.29 29.111 31.4925C28.9101 31.6949 28.6691 31.8547 28.403 31.9619C28.1369 32.069 27.8514 32.1213 27.564 32.1154C27.2766 32.1211 26.991 32.0691 26.7247 31.9626C26.4583 31.8562 26.2167 31.6974 26.0146 31.4961C25.8125 31.2947 25.6541 31.055 25.5491 30.7914C25.444 30.5278 25.3945 30.246 25.4036 29.963C25.4036 29.7102 25.4036 29.4575 25.4036 29.2047V14.2842C25.4036 13.5667 25.3539 13.5422 24.7 13.8357C23.7729 14.2353 22.9038 14.7326 22.0181 15.1973C21.7753 15.3001 21.5721 15.4765 21.4381 15.7009C21.3042 15.9252 21.2464 16.1858 21.2731 16.4448C21.2731 19.6083 21.2731 22.7636 21.2731 25.9189C21.2745 26.1964 21.2187 26.4713 21.1092 26.727C20.9998 26.9827 20.8389 27.2139 20.6362 27.4067C20.4335 27.5995 20.1933 27.7498 19.93 27.8486C19.6668 27.9475 19.3859 27.9927 19.1044 27.9817C18.8287 27.9849 18.5551 27.9345 18.2992 27.8333C18.0433 27.7321 17.8102 27.5821 17.6134 27.392C17.4165 27.2019 17.2597 26.9753 17.1519 26.7253C17.0441 26.4753 16.9875 26.2068 16.9854 25.9352C16.9854 25.3156 16.9854 24.6878 16.9854 24.0681L16.944 19.0131ZM35.9822 52.7841H64.8292C65.2719 52.8021 65.7151 52.7582 66.1453 52.6536C66.6242 52.5248 67.0368 52.2241 67.3018 51.8106C67.5669 51.3971 67.6652 50.9009 67.5773 50.4196C67.3621 49.2781 66.5343 48.7319 64.9947 48.7319H6.95307C6.57946 48.7237 6.20643 48.7648 5.84389 48.8542C5.41073 48.9672 5.02753 49.2178 4.75366 49.5672C4.4798 49.9165 4.33057 50.3451 4.32912 50.7865C4.34234 51.2156 4.49387 51.6293 4.76173 51.968C5.0296 52.3066 5.39991 52.5524 5.81906 52.6699C6.25321 52.7675 6.69847 52.8086 7.14346 52.7922L35.9822 52.7841Z" />
        </mask>
        <path d="M0 49.5146C0.237262 48.5233 0.703511 47.5993 1.36248 46.8144C2.02145 46.0296 2.85537 45.4051 3.79936 44.9895C4.1884 44.8264 4.16357 44.5003 4.16357 44.1742C4.16357 42.0788 4.16357 39.9834 4.16357 37.888C4.20616 31.6175 6.23145 25.5159 9.9578 20.4318C13.5591 15.375 18.6077 11.4892 24.4599 9.26989C24.7444 9.19135 24.9983 9.03042 25.1887 8.80797C25.3791 8.58552 25.4972 8.31184 25.5277 8.02244C25.7925 6.62884 26.5375 5.36799 27.637 4.45292C28.7364 3.53784 30.1228 3.02463 31.562 3C34.4922 3 37.4142 3 40.3361 3C41.7774 3.019 43.1676 3.52881 44.2706 4.44285C45.3736 5.35688 46.1214 6.6188 46.387 8.01428C46.4164 8.30375 46.533 8.57795 46.7218 8.80167C46.9106 9.0254 47.1629 9.18845 47.4465 9.26989C51.3871 10.7577 54.9866 13.0053 58.034 15.881C61.0814 18.7567 63.5154 22.2026 65.1934 26.0168C66.8485 29.6437 67.7223 33.5692 67.7594 37.5455C67.7594 39.7388 67.7594 41.9239 67.7594 44.1171C67.7319 44.3288 67.7774 44.5435 67.8884 44.7268C67.9995 44.9101 68.1697 45.0514 68.3719 45.1281C69.6529 45.724 70.694 46.7258 71.3288 47.9733C71.9635 49.2209 72.1553 50.642 71.8733 52.0095C71.5835 53.432 70.7975 54.7097 69.6514 55.6211C68.5054 56.5324 67.0717 57.0201 65.599 56.9993C45.8489 56.9993 26.1016 56.9993 6.35709 56.9993C4.98758 57.0195 3.64917 56.5965 2.54719 55.7953C1.44521 54.9941 0.640532 53.8589 0.2566 52.5639C0.192131 52.3673 0.117533 52.1741 0.0331043 51.985L0 49.5146ZM16.944 19.0131C14.3067 21.5058 12.204 24.4946 10.7607 27.8023C9.43454 30.7836 8.6877 33.9833 8.5589 37.2357C8.48441 39.2903 8.5589 41.3124 8.49268 43.3915C8.49268 44.484 8.49269 44.484 9.57704 44.484H62.3625C62.528 44.484 62.6936 44.484 62.8591 44.484C63.2647 44.484 63.4468 44.3535 63.4468 43.9296C63.5297 41.1862 63.4717 38.4405 63.273 35.7029C62.7048 30.2296 60.4421 25.0607 56.7917 20.8965C56.262 20.2768 55.666 19.7061 55.0038 19.0212C55.0038 19.3066 55.0038 19.4371 55.0038 19.5757V25.7966C55.0221 26.1673 54.9368 26.5359 54.7573 26.8622C54.5778 27.1885 54.3109 27.4601 53.9857 27.6474C53.6621 27.862 53.2831 27.9814 52.8932 27.9915C52.5033 28.0016 52.1185 27.902 51.7839 27.7045C51.4387 27.527 51.1519 27.2564 50.957 26.9243C50.762 26.5923 50.667 26.2125 50.683 25.8292C50.683 22.6495 50.683 19.4697 50.683 16.2817C50.7019 16.0784 50.6574 15.8742 50.5553 15.6964C50.4532 15.5187 50.2985 15.3758 50.1118 15.287C49.1765 14.7734 48.2328 14.2597 47.2561 13.8031C46.6849 13.5341 46.5442 13.6808 46.5442 14.276C46.5442 17.2927 46.5442 20.3095 46.5442 23.3343C46.5442 25.5439 46.5442 27.7616 46.5442 29.9711C46.554 30.2602 46.5024 30.5481 46.3927 30.8164C46.2831 31.0847 46.1178 31.3275 45.9074 31.5293C45.6971 31.7311 45.4463 31.8875 45.1711 31.9884C44.896 32.0894 44.6024 32.1326 44.3093 32.1154C44.0158 32.1091 43.7268 32.0429 43.4605 31.9211C43.1942 31.7993 42.9564 31.6246 42.762 31.4078C42.5676 31.1911 42.4209 30.9371 42.331 30.6617C42.2412 30.3864 42.2102 30.0958 42.2399 29.8081C42.2399 23.1441 42.2399 16.4828 42.2399 9.82431C42.2399 7.97352 41.4701 7.22341 39.5829 7.22341C37.1769 7.22341 34.7681 7.22341 32.3566 7.22341C30.4777 7.22341 29.7079 7.98167 29.7079 9.83247C29.7079 12.042 29.7079 14.2597 29.7079 16.4693C29.7079 20.9644 29.7079 25.4596 29.7079 29.9548C29.7204 30.2377 29.6738 30.5201 29.5712 30.7846C29.4685 31.049 29.3119 31.29 29.111 31.4925C28.9101 31.6949 28.6691 31.8547 28.403 31.9619C28.1369 32.069 27.8514 32.1213 27.564 32.1154C27.2766 32.1211 26.991 32.0691 26.7247 31.9626C26.4583 31.8562 26.2167 31.6974 26.0146 31.4961C25.8125 31.2947 25.6541 31.055 25.5491 30.7914C25.444 30.5278 25.3945 30.246 25.4036 29.963C25.4036 29.7102 25.4036 29.4575 25.4036 29.2047V14.2842C25.4036 13.5667 25.3539 13.5422 24.7 13.8357C23.7729 14.2353 22.9038 14.7326 22.0181 15.1973C21.7753 15.3001 21.5721 15.4765 21.4381 15.7009C21.3042 15.9252 21.2464 16.1858 21.2731 16.4448C21.2731 19.6083 21.2731 22.7636 21.2731 25.9189C21.2745 26.1964 21.2187 26.4713 21.1092 26.727C20.9998 26.9827 20.8389 27.2139 20.6362 27.4067C20.4335 27.5995 20.1933 27.7498 19.93 27.8486C19.6668 27.9475 19.3859 27.9927 19.1044 27.9817C18.8287 27.9849 18.5551 27.9345 18.2992 27.8333C18.0433 27.7321 17.8102 27.5821 17.6134 27.392C17.4165 27.2019 17.2597 26.9753 17.1519 26.7253C17.0441 26.4753 16.9875 26.2068 16.9854 25.9352C16.9854 25.3156 16.9854 24.6878 16.9854 24.0681L16.944 19.0131ZM35.9822 52.7841H64.8292C65.2719 52.8021 65.7151 52.7582 66.1453 52.6536C66.6242 52.5248 67.0368 52.2241 67.3018 51.8106C67.5669 51.3971 67.6652 50.9009 67.5773 50.4196C67.3621 49.2781 66.5343 48.7319 64.9947 48.7319H6.95307C6.57946 48.7237 6.20643 48.7648 5.84389 48.8542C5.41073 48.9672 5.02753 49.2178 4.75366 49.5672C4.4798 49.9165 4.33057 50.3451 4.32912 50.7865C4.34234 51.2156 4.49387 51.6293 4.76173 51.968C5.0296 52.3066 5.39991 52.5524 5.81906 52.6699C6.25321 52.7675 6.69847 52.8086 7.14346 52.7922L35.9822 52.7841Z" fill="#E8461A" />
        <path d="M0 49.5146C0.237262 48.5233 0.703511 47.5993 1.36248 46.8144C2.02145 46.0296 2.85537 45.4051 3.79936 44.9895C4.1884 44.8264 4.16357 44.5003 4.16357 44.1742C4.16357 42.0788 4.16357 39.9834 4.16357 37.888C4.20616 31.6175 6.23145 25.5159 9.9578 20.4318C13.5591 15.375 18.6077 11.4892 24.4599 9.26989C24.7444 9.19135 24.9983 9.03042 25.1887 8.80797C25.3791 8.58552 25.4972 8.31184 25.5277 8.02244C25.7925 6.62884 26.5375 5.36799 27.637 4.45292C28.7364 3.53784 30.1228 3.02463 31.562 3C34.4922 3 37.4142 3 40.3361 3C41.7774 3.019 43.1676 3.52881 44.2706 4.44285C45.3736 5.35688 46.1214 6.6188 46.387 8.01428C46.4164 8.30375 46.533 8.57795 46.7218 8.80167C46.9106 9.0254 47.1629 9.18845 47.4465 9.26989C51.3871 10.7577 54.9866 13.0053 58.034 15.881C61.0814 18.7567 63.5154 22.2026 65.1934 26.0168C66.8485 29.6437 67.7223 33.5692 67.7594 37.5455C67.7594 39.7388 67.7594 41.9239 67.7594 44.1171C67.7319 44.3288 67.7774 44.5435 67.8884 44.7268C67.9995 44.9101 68.1697 45.0514 68.3719 45.1281C69.6529 45.724 70.694 46.7258 71.3288 47.9733C71.9635 49.2209 72.1553 50.642 71.8733 52.0095C71.5835 53.432 70.7975 54.7097 69.6514 55.6211C68.5054 56.5324 67.0717 57.0201 65.599 56.9993C45.8489 56.9993 26.1016 56.9993 6.35709 56.9993C4.98758 57.0195 3.64917 56.5965 2.54719 55.7953C1.44521 54.9941 0.640532 53.8589 0.2566 52.5639C0.192131 52.3673 0.117533 52.1741 0.0331043 51.985L0 49.5146ZM16.944 19.0131C14.3067 21.5058 12.204 24.4946 10.7607 27.8023C9.43454 30.7836 8.6877 33.9833 8.5589 37.2357C8.48441 39.2903 8.5589 41.3124 8.49268 43.3915C8.49268 44.484 8.49269 44.484 9.57704 44.484H62.3625C62.528 44.484 62.6936 44.484 62.8591 44.484C63.2647 44.484 63.4468 44.3535 63.4468 43.9296C63.5297 41.1862 63.4717 38.4405 63.273 35.7029C62.7048 30.2296 60.4421 25.0607 56.7917 20.8965C56.262 20.2768 55.666 19.7061 55.0038 19.0212C55.0038 19.3066 55.0038 19.4371 55.0038 19.5757V25.7966C55.0221 26.1673 54.9368 26.5359 54.7573 26.8622C54.5778 27.1885 54.3109 27.4601 53.9857 27.6474C53.6621 27.862 53.2831 27.9814 52.8932 27.9915C52.5033 28.0016 52.1185 27.902 51.7839 27.7045C51.4387 27.527 51.1519 27.2564 50.957 26.9243C50.762 26.5923 50.667 26.2125 50.683 25.8292C50.683 22.6495 50.683 19.4697 50.683 16.2817C50.7019 16.0784 50.6574 15.8742 50.5553 15.6964C50.4532 15.5187 50.2985 15.3758 50.1118 15.287C49.1765 14.7734 48.2328 14.2597 47.2561 13.8031C46.6849 13.5341 46.5442 13.6808 46.5442 14.276C46.5442 17.2927 46.5442 20.3095 46.5442 23.3343C46.5442 25.5439 46.5442 27.7616 46.5442 29.9711C46.554 30.2602 46.5024 30.5481 46.3927 30.8164C46.2831 31.0847 46.1178 31.3275 45.9074 31.5293C45.6971 31.7311 45.4463 31.8875 45.1711 31.9884C44.896 32.0894 44.6024 32.1326 44.3093 32.1154C44.0158 32.1091 43.7268 32.0429 43.4605 31.9211C43.1942 31.7993 42.9564 31.6246 42.762 31.4078C42.5676 31.1911 42.4209 30.9371 42.331 30.6617C42.2412 30.3864 42.2102 30.0958 42.2399 29.8081C42.2399 23.1441 42.2399 16.4828 42.2399 9.82431C42.2399 7.97352 41.4701 7.22341 39.5829 7.22341C37.1769 7.22341 34.7681 7.22341 32.3566 7.22341C30.4777 7.22341 29.7079 7.98167 29.7079 9.83247C29.7079 12.042 29.7079 14.2597 29.7079 16.4693C29.7079 20.9644 29.7079 25.4596 29.7079 29.9548C29.7204 30.2377 29.6738 30.5201 29.5712 30.7846C29.4685 31.049 29.3119 31.29 29.111 31.4925C28.9101 31.6949 28.6691 31.8547 28.403 31.9619C28.1369 32.069 27.8514 32.1213 27.564 32.1154C27.2766 32.1211 26.991 32.0691 26.7247 31.9626C26.4583 31.8562 26.2167 31.6974 26.0146 31.4961C25.8125 31.2947 25.6541 31.055 25.5491 30.7914C25.444 30.5278 25.3945 30.246 25.4036 29.963C25.4036 29.7102 25.4036 29.4575 25.4036 29.2047V14.2842C25.4036 13.5667 25.3539 13.5422 24.7 13.8357C23.7729 14.2353 22.9038 14.7326 22.0181 15.1973C21.7753 15.3001 21.5721 15.4765 21.4381 15.7009C21.3042 15.9252 21.2464 16.1858 21.2731 16.4448C21.2731 19.6083 21.2731 22.7636 21.2731 25.9189C21.2745 26.1964 21.2187 26.4713 21.1092 26.727C20.9998 26.9827 20.8389 27.2139 20.6362 27.4067C20.4335 27.5995 20.1933 27.7498 19.93 27.8486C19.6668 27.9475 19.3859 27.9927 19.1044 27.9817C18.8287 27.9849 18.5551 27.9345 18.2992 27.8333C18.0433 27.7321 17.8102 27.5821 17.6134 27.392C17.4165 27.2019 17.2597 26.9753 17.1519 26.7253C17.0441 26.4753 16.9875 26.2068 16.9854 25.9352C16.9854 25.3156 16.9854 24.6878 16.9854 24.0681L16.944 19.0131ZM35.9822 52.7841H64.8292C65.2719 52.8021 65.7151 52.7582 66.1453 52.6536C66.6242 52.5248 67.0368 52.2241 67.3018 51.8106C67.5669 51.3971 67.6652 50.9009 67.5773 50.4196C67.3621 49.2781 66.5343 48.7319 64.9947 48.7319H6.95307C6.57946 48.7237 6.20643 48.7648 5.84389 48.8542C5.41073 48.9672 5.02753 49.2178 4.75366 49.5672C4.4798 49.9165 4.33057 50.3451 4.32912 50.7865C4.34234 51.2156 4.49387 51.6293 4.76173 51.968C5.0296 52.3066 5.39991 52.5524 5.81906 52.6699C6.25321 52.7675 6.69847 52.8086 7.14346 52.7922L35.9822 52.7841Z" stroke="#E8461A" stroke-width="1.6" mask="url(#path-1-outside-1_68_2125)" />
    </g>
    <defs>
        <clipPath id="clip0_68_2125">
            <rect width="72" height="60" fill="white" />
        </clipPath>
    </defs>
</svg>
