<svg width="72" height="60" viewBox="0 0 72 60" fill="none" xmlns="http://www.w3.org/2000/svg">
    <mask id="path-1-outside-1_68_2125" maskUnits="userSpaceOnUse" x="4" y="6" width="64" height="48" fill="black">
        <rect fill="white" x="4" y="6" width="64" height="48" />
        <path d="M5 46.6235C5.20431 45.7791 5.6058 44.992 6.17325 44.3234C6.74069 43.6548 7.45879 43.1228 8.27167 42.7688C8.60668 42.6299 8.58529 42.3521 8.58529 42.0743C8.58529 40.2893 8.58529 38.5044 8.58529 36.7194C8.62197 31.3779 10.366 26.1802 13.5748 21.8493C16.6759 17.5417 21.0233 14.2316 26.0627 12.341C26.3076 12.2741 26.5263 12.137 26.6902 11.9475C26.8542 11.758 26.9559 11.5249 26.9822 11.2784C27.2102 10.0912 27.8518 9.01718 28.7985 8.23767C29.7452 7.45816 30.9391 7.02098 32.1784 7C34.7016 7 37.2178 7 39.7339 7C40.975 7.01618 42.1721 7.45047 43.1219 8.22909C44.0717 9.00771 44.7156 10.0827 44.9443 11.2714C44.9697 11.518 45.0701 11.7516 45.2327 11.9422C45.3952 12.1328 45.6125 12.2716 45.8567 12.341C49.25 13.6084 52.3496 15.523 54.9737 17.9727C57.5979 20.4224 59.6938 23.3578 61.1388 26.6069C62.564 29.6965 63.3164 33.0404 63.3484 36.4277C63.3484 38.296 63.3484 40.1574 63.3484 42.0257C63.3247 42.206 63.3638 42.3889 63.4595 42.545C63.5551 42.7012 63.7017 42.8215 63.8758 42.8869C64.9789 43.3945 65.8754 44.2479 66.422 45.3106C66.9686 46.3733 67.1337 47.5839 66.8909 48.7488C66.6413 49.9606 65.9645 51.049 64.9776 51.8253C63.9908 52.6017 62.7562 53.0171 61.488 52.9994C44.481 52.9994 27.4764 52.9994 10.4742 52.9994C9.29486 53.0166 8.14234 52.6563 7.19341 51.9738C6.24449 51.2913 5.55157 50.3243 5.22096 49.2211C5.16545 49.0537 5.10121 48.8891 5.02851 48.728L5 46.6235ZM19.5907 20.6408C17.3196 22.7642 15.509 25.3102 14.2662 28.1279C13.1242 30.6675 12.4811 33.3932 12.3702 36.1638C12.306 37.914 12.3702 39.6365 12.3131 41.4075C12.3131 42.3382 12.3132 42.3382 13.2469 42.3382H58.701C58.8436 42.3382 58.9861 42.3382 59.1287 42.3382C59.478 42.3382 59.6348 42.2271 59.6348 41.8659C59.7062 39.529 59.6562 37.19 59.4851 34.858C58.9958 30.1956 57.0474 25.7925 53.904 22.2452C53.4478 21.7173 52.9346 21.2311 52.3644 20.6477C52.3644 20.8908 52.3644 21.0019 52.3644 21.12V26.4194C52.3801 26.7351 52.3067 27.0491 52.1521 27.327C51.9975 27.605 51.7677 27.8364 51.4877 27.996C51.209 28.1788 50.8827 28.2804 50.5469 28.289C50.2111 28.2976 49.8798 28.2128 49.5917 28.0446C49.2944 27.8933 49.0475 27.6628 48.8796 27.38C48.7117 27.0971 48.6299 26.7736 48.6437 26.4471C48.6437 23.7384 48.6437 21.0297 48.6437 18.3141C48.66 18.1408 48.6216 17.9669 48.5337 17.8155C48.4459 17.664 48.3126 17.5424 48.1519 17.4667C47.3464 17.0292 46.5338 16.5916 45.6927 16.2027C45.2009 15.9735 45.0798 16.0985 45.0798 16.6055C45.0798 19.1753 45.0798 21.7451 45.0798 24.3218C45.0798 26.204 45.0798 28.0932 45.0798 29.9754C45.0881 30.2216 45.0437 30.4669 44.9493 30.6954C44.8549 30.924 44.7125 31.1308 44.5314 31.3028C44.3503 31.4747 44.1343 31.6079 43.8974 31.6938C43.6604 31.7798 43.4076 31.8167 43.1552 31.802C42.9025 31.7966 42.6536 31.7402 42.4243 31.6365C42.195 31.5328 41.9902 31.3839 41.8228 31.1993C41.6554 31.0146 41.5291 30.7982 41.4517 30.5637C41.3743 30.3292 41.3476 30.0816 41.3733 29.8365C41.3733 24.1598 41.3733 18.4854 41.3733 12.8133C41.3733 11.2367 40.7104 10.5977 39.0853 10.5977C37.0134 10.5977 34.9392 10.5977 32.8627 10.5977C31.2446 10.5977 30.5818 11.2436 30.5818 12.8203C30.5818 14.7025 30.5818 16.5916 30.5818 18.4738C30.5818 22.303 30.5818 26.1323 30.5818 29.9615C30.5925 30.2025 30.5525 30.443 30.4641 30.6683C30.3757 30.8936 30.2408 31.0989 30.0678 31.2713C29.8948 31.4438 29.6873 31.5799 29.4582 31.6712C29.229 31.7625 28.9831 31.807 28.7356 31.802C28.4882 31.8069 28.2423 31.7626 28.0129 31.6719C27.7835 31.5812 27.5755 31.4459 27.4015 31.2744C27.2275 31.1029 27.0911 30.8987 27.0006 30.6741C26.9101 30.4496 26.8675 30.2095 26.8753 29.9685C26.8753 29.7531 26.8753 29.5378 26.8753 29.3225V16.6124C26.8753 16.0012 26.8325 15.9804 26.2694 16.2304C25.4711 16.5708 24.7227 16.9944 23.96 17.3903C23.751 17.4779 23.576 17.6281 23.4606 17.8193C23.3453 18.0104 23.2955 18.2324 23.3185 18.453C23.3185 21.1478 23.3185 23.8357 23.3185 26.5235C23.3197 26.7599 23.2717 26.9941 23.1774 27.2119C23.0831 27.4297 22.9446 27.6267 22.7701 27.7909C22.5955 27.9551 22.3887 28.0832 22.162 28.1674C21.9353 28.2515 21.6934 28.2901 21.451 28.2807C21.2136 28.2835 20.978 28.2405 20.7576 28.1543C20.5373 28.0681 20.3366 27.9403 20.1671 27.7784C19.9975 27.6164 19.8625 27.4234 19.7697 27.2104C19.6769 26.9975 19.6281 26.7688 19.6263 26.5374C19.6263 26.0096 19.6263 25.4748 19.6263 24.9469L19.5907 20.6408ZM35.9847 49.4086H60.8251C61.2064 49.424 61.588 49.3866 61.9584 49.2975C62.3708 49.1878 62.7261 48.9316 62.9544 48.5794C63.1826 48.2272 63.2672 47.8044 63.1916 47.3945C63.0062 46.4221 62.2934 45.9568 60.9677 45.9568H10.9874C10.6656 45.9498 10.3444 45.9849 10.0322 46.061C9.65924 46.1572 9.32926 46.3707 9.09343 46.6683C8.8576 46.9659 8.7291 47.331 8.72785 47.707C8.73924 48.0725 8.86972 48.425 9.10038 48.7134C9.33104 49.0019 9.64992 49.2113 10.0109 49.3114C10.3847 49.3945 10.7681 49.4295 11.1513 49.4156L35.9847 49.4086Z" />
    </mask>
    <path d="M5 46.6235C5.20431 45.7791 5.6058 44.992 6.17325 44.3234C6.74069 43.6548 7.45879 43.1228 8.27167 42.7688C8.60668 42.6299 8.58529 42.3521 8.58529 42.0743C8.58529 40.2893 8.58529 38.5044 8.58529 36.7194C8.62197 31.3779 10.366 26.1802 13.5748 21.8493C16.6759 17.5417 21.0233 14.2316 26.0627 12.341C26.3076 12.2741 26.5263 12.137 26.6902 11.9475C26.8542 11.758 26.9559 11.5249 26.9822 11.2784C27.2102 10.0912 27.8518 9.01718 28.7985 8.23767C29.7452 7.45816 30.9391 7.02098 32.1784 7C34.7016 7 37.2178 7 39.7339 7C40.975 7.01618 42.1721 7.45047 43.1219 8.22909C44.0717 9.00771 44.7156 10.0827 44.9443 11.2714C44.9697 11.518 45.0701 11.7516 45.2327 11.9422C45.3952 12.1328 45.6125 12.2716 45.8567 12.341C49.25 13.6084 52.3496 15.523 54.9737 17.9727C57.5979 20.4224 59.6938 23.3578 61.1388 26.6069C62.564 29.6965 63.3164 33.0404 63.3484 36.4277C63.3484 38.296 63.3484 40.1574 63.3484 42.0257C63.3247 42.206 63.3638 42.3889 63.4595 42.545C63.5551 42.7012 63.7017 42.8215 63.8758 42.8869C64.9789 43.3945 65.8754 44.2479 66.422 45.3106C66.9686 46.3733 67.1337 47.5839 66.8909 48.7488C66.6413 49.9606 65.9645 51.049 64.9776 51.8253C63.9908 52.6017 62.7562 53.0171 61.488 52.9994C44.481 52.9994 27.4764 52.9994 10.4742 52.9994C9.29486 53.0166 8.14234 52.6563 7.19341 51.9738C6.24449 51.2913 5.55157 50.3243 5.22096 49.2211C5.16545 49.0537 5.10121 48.8891 5.02851 48.728L5 46.6235ZM19.5907 20.6408C17.3196 22.7642 15.509 25.3102 14.2662 28.1279C13.1242 30.6675 12.4811 33.3932 12.3702 36.1638C12.306 37.914 12.3702 39.6365 12.3131 41.4075C12.3131 42.3382 12.3132 42.3382 13.2469 42.3382H58.701C58.8436 42.3382 58.9861 42.3382 59.1287 42.3382C59.478 42.3382 59.6348 42.2271 59.6348 41.8659C59.7062 39.529 59.6562 37.19 59.4851 34.858C58.9958 30.1956 57.0474 25.7925 53.904 22.2452C53.4478 21.7173 52.9346 21.2311 52.3644 20.6477C52.3644 20.8908 52.3644 21.0019 52.3644 21.12V26.4194C52.3801 26.7351 52.3067 27.0491 52.1521 27.327C51.9975 27.605 51.7677 27.8364 51.4877 27.996C51.209 28.1788 50.8827 28.2804 50.5469 28.289C50.2111 28.2976 49.8798 28.2128 49.5917 28.0446C49.2944 27.8933 49.0475 27.6628 48.8796 27.38C48.7117 27.0971 48.6299 26.7736 48.6437 26.4471C48.6437 23.7384 48.6437 21.0297 48.6437 18.3141C48.66 18.1408 48.6216 17.9669 48.5337 17.8155C48.4459 17.664 48.3126 17.5424 48.1519 17.4667C47.3464 17.0292 46.5338 16.5916 45.6927 16.2027C45.2009 15.9735 45.0798 16.0985 45.0798 16.6055C45.0798 19.1753 45.0798 21.7451 45.0798 24.3218C45.0798 26.204 45.0798 28.0932 45.0798 29.9754C45.0881 30.2216 45.0437 30.4669 44.9493 30.6954C44.8549 30.924 44.7125 31.1308 44.5314 31.3028C44.3503 31.4747 44.1343 31.6079 43.8974 31.6938C43.6604 31.7798 43.4076 31.8167 43.1552 31.802C42.9025 31.7966 42.6536 31.7402 42.4243 31.6365C42.195 31.5328 41.9902 31.3839 41.8228 31.1993C41.6554 31.0146 41.5291 30.7982 41.4517 30.5637C41.3743 30.3292 41.3476 30.0816 41.3733 29.8365C41.3733 24.1598 41.3733 18.4854 41.3733 12.8133C41.3733 11.2367 40.7104 10.5977 39.0853 10.5977C37.0134 10.5977 34.9392 10.5977 32.8627 10.5977C31.2446 10.5977 30.5818 11.2436 30.5818 12.8203C30.5818 14.7025 30.5818 16.5916 30.5818 18.4738C30.5818 22.303 30.5818 26.1323 30.5818 29.9615C30.5925 30.2025 30.5525 30.443 30.4641 30.6683C30.3757 30.8936 30.2408 31.0989 30.0678 31.2713C29.8948 31.4438 29.6873 31.5799 29.4582 31.6712C29.229 31.7625 28.9831 31.807 28.7356 31.802C28.4882 31.8069 28.2423 31.7626 28.0129 31.6719C27.7835 31.5812 27.5755 31.4459 27.4015 31.2744C27.2275 31.1029 27.0911 30.8987 27.0006 30.6741C26.9101 30.4496 26.8675 30.2095 26.8753 29.9685C26.8753 29.7531 26.8753 29.5378 26.8753 29.3225V16.6124C26.8753 16.0012 26.8325 15.9804 26.2694 16.2304C25.4711 16.5708 24.7227 16.9944 23.96 17.3903C23.751 17.4779 23.576 17.6281 23.4606 17.8193C23.3453 18.0104 23.2955 18.2324 23.3185 18.453C23.3185 21.1478 23.3185 23.8357 23.3185 26.5235C23.3197 26.7599 23.2717 26.9941 23.1774 27.2119C23.0831 27.4297 22.9446 27.6267 22.7701 27.7909C22.5955 27.9551 22.3887 28.0832 22.162 28.1674C21.9353 28.2515 21.6934 28.2901 21.451 28.2807C21.2136 28.2835 20.978 28.2405 20.7576 28.1543C20.5373 28.0681 20.3366 27.9403 20.1671 27.7784C19.9975 27.6164 19.8625 27.4234 19.7697 27.2104C19.6769 26.9975 19.6281 26.7688 19.6263 26.5374C19.6263 26.0096 19.6263 25.4748 19.6263 24.9469L19.5907 20.6408ZM35.9847 49.4086H60.8251C61.2064 49.424 61.588 49.3866 61.9584 49.2975C62.3708 49.1878 62.7261 48.9316 62.9544 48.5794C63.1826 48.2272 63.2672 47.8044 63.1916 47.3945C63.0062 46.4221 62.2934 45.9568 60.9677 45.9568H10.9874C10.6656 45.9498 10.3444 45.9849 10.0322 46.061C9.65924 46.1572 9.32926 46.3707 9.09343 46.6683C8.8576 46.9659 8.7291 47.331 8.72785 47.707C8.73924 48.0725 8.86972 48.425 9.10038 48.7134C9.33104 49.0019 9.64992 49.2113 10.0109 49.3114C10.3847 49.3945 10.7681 49.4295 11.1513 49.4156L35.9847 49.4086Z" fill="#E8461A" />
    <path d="M5 46.6235C5.20431 45.7791 5.6058 44.992 6.17325 44.3234C6.74069 43.6548 7.45879 43.1228 8.27167 42.7688C8.60668 42.6299 8.58529 42.3521 8.58529 42.0743C8.58529 40.2893 8.58529 38.5044 8.58529 36.7194C8.62197 31.3779 10.366 26.1802 13.5748 21.8493C16.6759 17.5417 21.0233 14.2316 26.0627 12.341C26.3076 12.2741 26.5263 12.137 26.6902 11.9475C26.8542 11.758 26.9559 11.5249 26.9822 11.2784C27.2102 10.0912 27.8518 9.01718 28.7985 8.23767C29.7452 7.45816 30.9391 7.02098 32.1784 7C34.7016 7 37.2178 7 39.7339 7C40.975 7.01618 42.1721 7.45047 43.1219 8.22909C44.0717 9.00771 44.7156 10.0827 44.9443 11.2714C44.9697 11.518 45.0701 11.7516 45.2327 11.9422C45.3952 12.1328 45.6125 12.2716 45.8567 12.341C49.25 13.6084 52.3496 15.523 54.9737 17.9727C57.5979 20.4224 59.6938 23.3578 61.1388 26.6069C62.564 29.6965 63.3164 33.0404 63.3484 36.4277C63.3484 38.296 63.3484 40.1574 63.3484 42.0257C63.3247 42.206 63.3638 42.3889 63.4595 42.545C63.5551 42.7012 63.7017 42.8215 63.8758 42.8869C64.9789 43.3945 65.8754 44.2479 66.422 45.3106C66.9686 46.3733 67.1337 47.5839 66.8909 48.7488C66.6413 49.9606 65.9645 51.049 64.9776 51.8253C63.9908 52.6017 62.7562 53.0171 61.488 52.9994C44.481 52.9994 27.4764 52.9994 10.4742 52.9994C9.29486 53.0166 8.14234 52.6563 7.19341 51.9738C6.24449 51.2913 5.55157 50.3243 5.22096 49.2211C5.16545 49.0537 5.10121 48.8891 5.02851 48.728L5 46.6235ZM19.5907 20.6408C17.3196 22.7642 15.509 25.3102 14.2662 28.1279C13.1242 30.6675 12.4811 33.3932 12.3702 36.1638C12.306 37.914 12.3702 39.6365 12.3131 41.4075C12.3131 42.3382 12.3132 42.3382 13.2469 42.3382H58.701C58.8436 42.3382 58.9861 42.3382 59.1287 42.3382C59.478 42.3382 59.6348 42.2271 59.6348 41.8659C59.7062 39.529 59.6562 37.19 59.4851 34.858C58.9958 30.1956 57.0474 25.7925 53.904 22.2452C53.4478 21.7173 52.9346 21.2311 52.3644 20.6477C52.3644 20.8908 52.3644 21.0019 52.3644 21.12V26.4194C52.3801 26.7351 52.3067 27.0491 52.1521 27.327C51.9975 27.605 51.7677 27.8364 51.4877 27.996C51.209 28.1788 50.8827 28.2804 50.5469 28.289C50.2111 28.2976 49.8798 28.2128 49.5917 28.0446C49.2944 27.8933 49.0475 27.6628 48.8796 27.38C48.7117 27.0971 48.6299 26.7736 48.6437 26.4471C48.6437 23.7384 48.6437 21.0297 48.6437 18.3141C48.66 18.1408 48.6216 17.9669 48.5337 17.8155C48.4459 17.664 48.3126 17.5424 48.1519 17.4667C47.3464 17.0292 46.5338 16.5916 45.6927 16.2027C45.2009 15.9735 45.0798 16.0985 45.0798 16.6055C45.0798 19.1753 45.0798 21.7451 45.0798 24.3218C45.0798 26.204 45.0798 28.0932 45.0798 29.9754C45.0881 30.2216 45.0437 30.4669 44.9493 30.6954C44.8549 30.924 44.7125 31.1308 44.5314 31.3028C44.3503 31.4747 44.1343 31.6079 43.8974 31.6938C43.6604 31.7798 43.4076 31.8167 43.1552 31.802C42.9025 31.7966 42.6536 31.7402 42.4243 31.6365C42.195 31.5328 41.9902 31.3839 41.8228 31.1993C41.6554 31.0146 41.5291 30.7982 41.4517 30.5637C41.3743 30.3292 41.3476 30.0816 41.3733 29.8365C41.3733 24.1598 41.3733 18.4854 41.3733 12.8133C41.3733 11.2367 40.7104 10.5977 39.0853 10.5977C37.0134 10.5977 34.9392 10.5977 32.8627 10.5977C31.2446 10.5977 30.5818 11.2436 30.5818 12.8203C30.5818 14.7025 30.5818 16.5916 30.5818 18.4738C30.5818 22.303 30.5818 26.1323 30.5818 29.9615C30.5925 30.2025 30.5525 30.443 30.4641 30.6683C30.3757 30.8936 30.2408 31.0989 30.0678 31.2713C29.8948 31.4438 29.6873 31.5799 29.4582 31.6712C29.229 31.7625 28.9831 31.807 28.7356 31.802C28.4882 31.8069 28.2423 31.7626 28.0129 31.6719C27.7835 31.5812 27.5755 31.4459 27.4015 31.2744C27.2275 31.1029 27.0911 30.8987 27.0006 30.6741C26.9101 30.4496 26.8675 30.2095 26.8753 29.9685C26.8753 29.7531 26.8753 29.5378 26.8753 29.3225V16.6124C26.8753 16.0012 26.8325 15.9804 26.2694 16.2304C25.4711 16.5708 24.7227 16.9944 23.96 17.3903C23.751 17.4779 23.576 17.6281 23.4606 17.8193C23.3453 18.0104 23.2955 18.2324 23.3185 18.453C23.3185 21.1478 23.3185 23.8357 23.3185 26.5235C23.3197 26.7599 23.2717 26.9941 23.1774 27.2119C23.0831 27.4297 22.9446 27.6267 22.7701 27.7909C22.5955 27.9551 22.3887 28.0832 22.162 28.1674C21.9353 28.2515 21.6934 28.2901 21.451 28.2807C21.2136 28.2835 20.978 28.2405 20.7576 28.1543C20.5373 28.0681 20.3366 27.9403 20.1671 27.7784C19.9975 27.6164 19.8625 27.4234 19.7697 27.2104C19.6769 26.9975 19.6281 26.7688 19.6263 26.5374C19.6263 26.0096 19.6263 25.4748 19.6263 24.9469L19.5907 20.6408ZM35.9847 49.4086H60.8251C61.2064 49.424 61.588 49.3866 61.9584 49.2975C62.3708 49.1878 62.7261 48.9316 62.9544 48.5794C63.1826 48.2272 63.2672 47.8044 63.1916 47.3945C63.0062 46.4221 62.2934 45.9568 60.9677 45.9568H10.9874C10.6656 45.9498 10.3444 45.9849 10.0322 46.061C9.65924 46.1572 9.32926 46.3707 9.09343 46.6683C8.8576 46.9659 8.7291 47.331 8.72785 47.707C8.73924 48.0725 8.86972 48.425 9.10038 48.7134C9.33104 49.0019 9.64992 49.2113 10.0109 49.3114C10.3847 49.3945 10.7681 49.4295 11.1513 49.4156L35.9847 49.4086Z" stroke="#E8461A" stroke-width="1.6" mask="url(#path-1-outside-1_68_2125)" />
</svg>
