<svg width="31" height="30" viewBox="0 0 31 30" fill="none" xmlns="http://www.w3.org/2000/svg">
    <path d="M16.0621 1.89375C17.4684 1.875 18.8746 1.89375 20.2809 1.875C20.3746 3.54375 20.9559 5.25 22.1746 6.43125C23.3746 7.65 25.0809 8.19375 26.7496 8.38125V12.7875C25.1934 12.7313 23.6371 12.4125 22.2121 11.7375C21.5934 11.4563 21.0309 11.1 20.4684 10.725C20.4684 13.9125 20.4684 17.1187 20.4496 20.2875C20.3746 21.825 19.8684 23.3438 18.9871 24.6C17.5809 26.7 15.1246 28.0688 12.6121 28.1062C11.0746 28.2 9.51836 27.7688 8.20586 26.9813C6.03086 25.6875 4.49336 23.2875 4.26836 20.7375C4.23086 20.1938 4.23086 19.65 4.26836 19.1062C4.45586 17.025 5.48711 15.0375 7.06211 13.6875C8.84336 12.1125 11.3559 11.3625 13.6996 11.8125C13.7184 13.425 13.6621 15.0563 13.6621 16.6688C12.5934 16.3125 11.3371 16.425 10.3996 17.0812C9.70586 17.5312 9.19961 18.2063 8.91836 18.9937C8.69336 19.5562 8.74961 20.1562 8.76836 20.7562C9.03086 22.5562 10.7371 24.0562 12.5371 23.8875C13.7371 23.8875 14.8996 23.1562 15.5184 22.125C15.7246 21.7688 15.9496 21.3938 15.9684 20.9625C16.0809 19.0125 16.0246 17.0625 16.0434 15.0938C16.0434 10.6875 16.0434 6.28125 16.0621 1.89375Z" fill="white" />
</svg>
