<svg width="25" height="25" viewBox="0 0 25 25" fill="none" xmlns="http://www.w3.org/2000/svg">
    <path d="M12.5415 2.08331C6.854 2.08331 2.21859 6.71872 2.21859 12.4062C2.21859 14.2291 2.69775 16 3.59359 17.5625L2.13525 22.9166L7.604 21.4791C9.11442 22.3021 10.8123 22.7396 12.5415 22.7396C18.229 22.7396 22.8644 18.1041 22.8644 12.4166C22.8644 9.65622 21.7915 7.06247 19.8436 5.11456C18.8884 4.15008 17.7509 3.38536 16.4972 2.86494C15.2436 2.34451 13.8989 2.07881 12.5415 2.08331ZM12.5519 3.82289C14.8436 3.82289 16.9894 4.71872 18.6144 6.34372C19.4117 7.14114 20.0438 8.08801 20.4746 9.1301C20.9054 10.1722 21.1263 11.289 21.1248 12.4166C21.1248 17.1458 17.2707 20.9896 12.5415 20.9896C10.9998 20.9896 9.48942 20.5833 8.17692 19.7916L7.86442 19.6146L4.61442 20.4687L5.479 17.3021L5.27067 16.9687C4.41082 15.6025 3.95574 14.0205 3.95817 12.4062C3.96859 7.67706 7.81234 3.82289 12.5519 3.82289ZM8.88525 7.63539C8.71859 7.63539 8.43734 7.69789 8.19775 7.95831C7.96859 8.21872 7.2915 8.85414 7.2915 10.1146C7.2915 11.3854 8.21859 12.6041 8.33317 12.7812C8.479 12.9583 10.1665 15.5625 12.7603 16.6666C13.3748 16.9479 13.854 17.1041 14.229 17.2187C14.8436 17.4166 15.4061 17.3854 15.854 17.3229C16.354 17.25 17.3748 16.6979 17.5936 16.0937C17.8123 15.4896 17.8123 14.9791 17.7498 14.8646C17.6769 14.7604 17.5103 14.6979 17.2498 14.5833C16.9894 14.4375 15.7186 13.8125 15.4894 13.7291C15.2498 13.6458 15.104 13.6041 14.9061 13.8541C14.7394 14.1146 14.2394 14.6979 14.0936 14.8646C13.9373 15.0416 13.7915 15.0625 13.5415 14.9375C13.2707 14.8021 12.4373 14.5312 11.4582 13.6562C10.6873 12.9687 10.1769 12.125 10.0207 11.8646C9.89567 11.6146 10.0103 11.4583 10.1353 11.3437C10.2498 11.2291 10.4165 11.0416 10.5207 10.8854C10.6561 10.7396 10.6978 10.625 10.7811 10.4583C10.8644 10.2812 10.8228 10.1354 10.7603 10.0104C10.6978 9.89581 10.1769 8.60414 9.95817 8.09372C9.74984 7.59372 9.5415 7.65622 9.37484 7.64581C9.229 7.64581 9.06234 7.63539 8.88525 7.63539Z" fill="white" />
</svg>
