<svg xmlns="http://www.w3.org/2000/svg" xmlns:xlink="http://www.w3.org/1999/xlink" id="Layer_1" x="0px" y="0px" viewBox="0 0 512.001 512.001" style="enable-background:new 0 0 512.001 512.001;" xml:space="preserve">
<g>
	<g>
		<path d="M488.925,245.207c-2.562-23.158-16.233-43.782-36.572-55.17c-18.097-10.133-29.34-29.31-29.34-50.046V59.304    c0-18.168-12.26-34.139-29.813-38.838l-75.553-20.22c-0.076-0.02-0.152-0.029-0.228-0.047c-0.143-0.034-0.286-0.064-0.43-0.089    c-0.138-0.024-0.276-0.043-0.414-0.059c-0.145-0.017-0.29-0.03-0.435-0.038c-0.139-0.008-0.278-0.012-0.417-0.012    c-0.145,0-0.29,0.003-0.436,0.011c-0.14,0.008-0.278,0.02-0.417,0.036c-0.144,0.016-0.288,0.036-0.431,0.061    c-0.14,0.024-0.278,0.053-0.416,0.085c-0.078,0.018-0.156,0.027-0.234,0.048l-0.629,0.166c-37.48,9.938-77.453,9.886-114.92-0.16    c-0.081-0.022-0.163-0.032-0.244-0.05c-0.138-0.032-0.276-0.062-0.416-0.086c-0.146-0.026-0.292-0.045-0.439-0.062    c-0.136-0.017-0.27-0.03-0.406-0.038C196.583,0.003,196.432,0,196.28,0c-0.132,0-0.264,0.003-0.397,0.01    c-0.154,0.008-0.307,0.023-0.459,0.041c-0.13,0.015-0.26,0.033-0.39,0.055c-0.154,0.026-0.306,0.059-0.457,0.094    c-0.073,0.017-0.148,0.026-0.221,0.046l-75.554,20.221c-17.553,4.699-29.814,20.669-29.814,38.838v80.687    c0,20.736-11.242,39.913-29.339,50.046c-22.829,12.782-37.012,36.974-37.012,63.134v42.066v35.379v61.62v35.379v15.649    c0,4.143,3.358,7.5,7.5,7.5s7.5-3.357,7.5-7.5v-8.149h193.043c-2.309,12.009-7.474,23.413-15.126,33.056    c-13.633,17.176-33.608,27.485-55.328,28.708c-0.166,0.009-0.333,0.013-0.499,0.021c-0.559,0.028-1.118,0.055-1.679,0.071    c-0.1,0.003-0.2,0.002-0.299,0.004c-0.629,0.015-1.258,0.026-1.889,0.026H60.333c-12.514,0-22.695-10.178-22.695-22.688    c0-4.143-3.358-7.5-7.5-7.5s-7.5,3.357-7.5,7.5c0,20.781,16.91,37.689,37.696,37.689h95.527c0.001,0,0.002,0,0.003,0h0.001h0.001    h200.277h95.527c20.785,0,37.696-16.906,37.696-37.689v-46.697v-35.379v-61.621v-35.379v-42.066    C489.365,250.516,489.217,247.836,488.925,245.207z M393.91,36.701c8.489,4.175,14.103,12.879,14.103,22.603v80.687    c0,26.16,14.182,50.353,37.012,63.134c16.123,9.027,26.96,25.375,28.992,43.731c0.23,2.086,0.348,4.21,0.348,6.314v34.566H393.91    V36.701z M474.364,302.737v20.378H279.937v-20.378H474.364z M474.364,384.736H279.937v-46.62h194.427V384.736z M321.277,108.346    c1.28-8.858,1.93-17.802,1.93-26.736V17.262l20.314,5.437v175.608c0,4.143,3.357,7.5,7.5,7.5s7.5-3.357,7.5-7.5V26.714    l20.387,5.456v255.566h-20.387v-59.222c0-4.143-3.357-7.5-7.5-7.5s-7.5,3.357-7.5,7.5v59.222h-63.585v-49.995    c0-2.984,0.13-5.97,0.389-8.946c1.119-12.896,4.636-25.611,10.338-37.22l5.328-10.85l7.947-16.178    C312.604,146.902,318.462,127.831,321.277,108.346z M168.48,22.699l20.315-5.437v64.347c0,8.935,0.65,17.878,1.93,26.736    c2.815,19.486,8.672,38.556,17.338,56.202l13.275,27.028c7.017,14.286,10.725,30.251,10.725,46.166v49.995H168.48V22.699z     M133.092,32.171l20.387-5.456v261.023h-20.387V32.171z M37.638,253.17c0-20.736,11.242-39.913,29.34-50.045    c22.829-12.782,37.012-36.974,37.012-63.134V59.304c0-9.724,5.614-18.429,14.103-22.604v251.036H37.638V253.17z M37.638,302.737    h194.426v20.378H37.638V302.737z M37.638,338.116h194.426v46.62H37.638V338.116z M37.638,420.114v-20.378h194.426v20.378H37.638z     M206.06,497c0.07-0.046,0.137-0.096,0.206-0.142c0.873-0.58,1.737-1.175,2.59-1.786c0.187-0.134,0.372-0.273,0.558-0.409    c0.689-0.501,1.371-1.012,2.047-1.534c0.248-0.192,0.497-0.384,0.743-0.578c0.777-0.612,1.547-1.235,2.305-1.874    c0.061-0.052,0.124-0.101,0.185-0.152c0.808-0.684,1.601-1.389,2.387-2.103c0.23-0.209,0.458-0.421,0.686-0.633    c0.615-0.57,1.222-1.15,1.823-1.739c0.188-0.185,0.379-0.366,0.566-0.552c0.753-0.751,1.495-1.516,2.224-2.296    c0.167-0.179,0.331-0.363,0.497-0.543c0.586-0.637,1.164-1.283,1.735-1.938c0.202-0.232,0.404-0.464,0.604-0.698    c0.707-0.83,1.407-1.669,2.088-2.527c11.191-14.099,17.962-31.343,19.446-49.215c0.002-0.019,0.006-0.037,0.007-0.055    c0.042-0.516,0.062-1.028,0.095-1.543c0.047-0.716,0.103-1.43,0.132-2.148c0.052-1.251,0.079-2.493,0.079-3.718v-28.58v-61.621    v-35.379v-57.495c0-18.194-4.24-36.446-12.261-52.779l-13.275-27.029c-4.109-8.365-7.516-17.082-10.223-26.016    c-4.936-16.292-7.509-33.315-7.509-50.307V17.061c34.252,7.698,70.17,7.695,104.412-0.001v64.549    c0,9.79-0.852,19.591-2.516,29.258c-0.013,0.075-0.023,0.151-0.036,0.226c-0.036,0.209-0.081,0.416-0.117,0.625    c-2.838,16.013-7.906,31.643-15.063,46.215L277.2,184.962c-7.521,15.313-11.718,32.312-12.213,49.368    c-0.033,1.137-0.05,2.274-0.05,3.411v57.495v35.379v61.62v28.58c0,1.216,0.027,2.453,0.079,3.7    c0.032,0.771,0.09,1.538,0.142,2.307c0.031,0.468,0.048,0.932,0.086,1.4c0.002,0.018,0.005,0.036,0.007,0.054    c1.484,17.874,8.256,35.119,19.448,49.219c0.681,0.858,1.38,1.697,2.088,2.527c0.199,0.234,0.401,0.465,0.603,0.697    c0.573,0.659,1.155,1.309,1.745,1.949c0.162,0.176,0.321,0.354,0.483,0.528c0.733,0.784,1.479,1.553,2.236,2.308    c0.179,0.178,0.361,0.351,0.54,0.528c0.61,0.599,1.228,1.188,1.853,1.767c0.221,0.205,0.442,0.411,0.665,0.614    c0.791,0.719,1.589,1.427,2.401,2.115c0.05,0.042,0.102,0.083,0.152,0.125c0.77,0.649,1.551,1.281,2.34,1.903    c0.242,0.19,0.485,0.378,0.729,0.566c0.681,0.525,1.368,1.04,2.062,1.545c0.183,0.133,0.364,0.27,0.548,0.402    c0.855,0.612,1.721,1.208,2.596,1.79c0.067,0.046,0.133,0.095,0.202,0.141H206.06z M474.364,474.311    c0,12.51-10.181,22.688-22.696,22.688h-95.527c-23.395,0-45.152-10.508-59.694-28.83c-7.653-9.642-12.818-21.046-15.127-33.056    h193.044V474.311z M279.937,420.114v-20.378h194.427v20.378H279.937z"></path>
	</g>
</g>
<g>
</g>
<g>
</g>
<g>
</g>
<g>
</g>
<g>
</g>
<g>
</g>
<g>
</g>
<g>
</g>
<g>
</g>
<g>
</g>
<g>
</g>
<g>
</g>
<g>
</g>
<g>
</g>
<g>
</g>
</svg>