<svg xmlns="http://www.w3.org/2000/svg" xmlns:xlink="http://www.w3.org/1999/xlink" id="Capa_1" x="0px" y="0px" viewBox="0 0 379.47 379.38" style="enable-background:new 0 0 379.47 379.38;" xml:space="preserve">
<g>
	<path d="M0,232.68c0.69-3.23,1.31-6.47,2.07-9.68c8.11-34.31,38.36-58.43,73.58-58.51c38.03-0.08,76.06-0.06,114.09,0   c18.5,0.03,34.85,6.15,48.94,18.11c2.13,1.81,3.81,2.06,6.24,0.91c12.98-6.15,21.61-15.68,24.2-30.18   c1.76-9.84,1.31-19.67,0.28-29.52c-1.46-13.87-3.34-27.71-4.32-41.61c-2.16-30.74,12.53-51.86,38.99-65.67   c13.94-7.27,28.97-10.38,44.67-10.12c19.29,0.32,33.12,17.1,30.39,36.67c-2.07,14.82-9.15,27.24-18.54,38.49   c-13.48,16.14-30.33,27.8-49.49,36.15c-3.04,1.32-3.91,2.79-3.49,6.05c2.05,16,0.72,31.8-4.01,47.22   c-6.25,20.35-19.59,34.8-38.3,44.43c-2.64,1.36-2.93,2.55-2.41,5.33c1.24,6.64,2.55,13.4,2.59,20.12   c0.23,43.33,0.08,86.66,0.18,129.99c0.01,3.68-1.17,6.39-4.06,8.49c-87.11,0-174.23,0-261.58,0C0,330.48,0,281.58,0,232.68z    M196.23,177.61c0,33.64,0,66.89,0,100.34c4.15,0,8.05,0,12.4,0c0-1.53,0-2.86,0-4.19c0.01-4.81-0.1-9.64,0.09-14.44   c0.15-3.74,2.64-6.13,6.02-6.26c3.54-0.13,6.12,2.26,6.52,6.16c0.13,1.22,0.08,2.47,0.08,3.7c0,32.97,0,65.93,0.01,98.9   c0,1.55,0.14,3.09,0.21,4.47c0.65,0.22,0.88,0.37,1.11,0.37c8.03,0.04,16.05,0.11,24.08,0.07c6.89-0.03,6.19,0.97,6.2-6.01   c0.02-36.05,0.01-72.1,0.01-108.16c0-4.81,0.1-9.64-0.1-14.44c-1.23-30.09-22.43-54.5-52.05-60   C199.4,177.84,197.94,177.79,196.23,177.61z M69.37,271.89c0-31.62,0-62.78,0-94.32c-1.66,0.19-3.12,0.26-4.54,0.52   c-30.36,5.6-52.03,31.23-52.15,62.15c-0.16,40.97-0.04,81.95-0.03,122.92c0,1.07,0.16,2.14,0.25,3.36c10.45,0,20.63,0,31.36,0   c0-1.75,0-3.31,0-4.88c0-33.57-0.01-67.14,0.01-100.71c0-5.06,2.32-7.88,6.29-7.88c3.98,0,6.27,2.81,6.34,7.87   c0.04,2.84-0.14,5.69,0.11,8.51c0.08,0.87,1.18,2.29,1.89,2.34C62.31,272.03,65.74,271.89,69.37,271.89z M157.71,278.06   c0-33.99,0-67.35,0-100.98c-16.25,0-32.16,0.01-48.06-0.01c-2.61,0-2.13,1.88-2.13,3.4c-0.02,29.37,0.01,58.74-0.06,88.11   c-0.01,2.61,0.84,3.42,3.41,3.38c7.16-0.13,14.34-0.38,21.47,0.1c3.67,0.25,8.05,0.99,10.69,3.21   C147.74,279.24,152.61,277.8,157.71,278.06z M257.29,205.44c22.9-11.03,35.27-29.16,37.46-53.75c0.96-10.84-0.1-21.89-0.54-32.83   c-0.27-6.72,0.34-7.53,6.32-10.38c8.88-4.25,17.9-8.42,26.17-13.7c14.87-9.48,27.2-21.66,35.2-37.69   c3.07-6.14,5.07-12.61,4.82-19.56c-0.36-10.17-7.38-18.06-16.76-18.36c-18.98-0.6-36.46,4.17-51.68,15.83   c-12.02,9.21-19.99,21.24-20.49,36.57c-0.38,11.39,0.96,22.89,2.13,34.28c1.47,14.35,3.99,28.59,2.56,43.12   c-1.99,20.36-11.31,35.68-30.03,44.77c-0.62,0.3-1.16,0.77-1.82,1.22C252.87,198.47,254.97,201.78,257.29,205.44z M95.96,335.12   c11.85,0,23.7,0.04,35.55-0.02c5.22-0.02,7.55-2.25,7.59-7.41c0.09-11.85,0.08-23.7,0.01-35.54c-0.03-5.39-2.34-7.59-7.78-7.6   c-23.58-0.03-47.15,0.04-70.73-0.08c-2.96-0.01-3.77,0.87-3.74,3.77c0.13,14.31,0.14,28.63,0,42.95c-0.03,3.03,0.81,4.05,3.93,4   C72.51,335.02,84.24,335.12,95.96,335.12z M57.15,366.56c50.61,0,100.79,0,151.2,0c0-8.36,0-16.54,0-24.69   c-0.62-0.16-0.98-0.34-1.33-0.34c-19.5-0.03-38.99-0.05-58.49-0.01c-0.9,0-2.01,0.36-2.65,0.95c-4.56,4.25-10.03,5.34-16.06,5.31   c-22.7-0.11-45.41-0.04-68.11-0.04c-1.44,0-2.89,0-4.56,0C57.15,354.21,57.15,360.19,57.15,366.56z M208.37,291.15   c-18.92,0-37.57,0-56.27,0c0,12.67,0,25.04,0,37.5c18.87,0,37.44,0,56.27,0C208.37,316.07,208.37,303.69,208.37,291.15z    M183.08,277.93c0-33.67,0-67.13,0-100.55c-4.22,0-8.09,0-12.05,0c0,33.67,0,67.04,0,100.55   C175.19,277.93,179.09,277.93,183.08,277.93z M82.48,177.24c0,31.63,0,62.98,0,94.68c2.94,0,5.65-0.21,8.31,0.05   c3.3,0.33,4.14-0.88,4.13-4.13c-0.13-28.97-0.07-57.94-0.08-86.91c0-1.18-0.14-2.37-0.22-3.69   C90.46,177.24,86.67,177.24,82.48,177.24z"></path>
	<path d="M135.56,0.04c40.01,1.02,73.2,35.72,73.09,76.03c-0.11,42.04-34.03,76.36-75.92,76.44c-42.16,0.08-76.36-34.11-76.51-76.19   C56.08,34.31,90.98-1.43,135.56,0.04z M164.58,21.48c-0.44,8.59-3.77,15.18-10.82,19.53c-7.1,4.38-14.96,3.66-22.68,2.84   c-2.98-0.32-4.53-2.88-4.5-5.96c0.03-3.08,1.71-5.11,4.66-5.91c1.16-0.32,2.44-0.26,3.67-0.28c2.71-0.05,5.44,0.12,8.14-0.11   c4.87-0.41,8.5-4.28,8.73-9.01c0.22-4.63-2.44-7.68-7.62-8.72c-41.92-8.39-80.64,28.6-74.28,70.96   c3.94,26.24,23.12,46.9,49.01,52.79c25.2,5.74,51.93-4.9,66.39-26.41c14.58-21.7,14.26-50.04-0.9-71.71   C179.23,32.13,172.82,26.13,164.58,21.48z"></path>
	<path d="M290.16,80.86c-1.04-20.97,9.31-35.87,30.92-44.36c8.12-3.19,16.59-4.74,25.31-4.77c5.64-0.02,8.45,2.85,7.37,8.39   c-0.83,4.28-2.01,8.77-4.19,12.48c-11.38,19.31-27.61,33.25-48.26,42c-6.44,2.73-10.3,0.28-10.74-6.72   C290.43,85.54,290.3,83.2,290.16,80.86z M339.29,45.5c-18.79-2.03-40.58,18.72-35.78,33.89C318.76,71.61,330.59,60.45,339.29,45.5z   "></path>
</g>
</svg>