<svg xmlns="http://www.w3.org/2000/svg" height="496pt" viewBox="-8 0 496 496" width="496pt"><path d="m447.488281 347.183594-66.128906-12.589844c-45.832031-8.738281-84.808594-37.304688-106.917969-78.386719-12.066406-22.382812-18.441406-47.671875-18.441406-73.101562v-119.105469c8.824219 0 16-7.175781 16-16v-32c0-8.824219-7.175781-16-16-16h-240c-8.824219 0-16 7.175781-16 16v32c0 8.824219 7.175781 16 16 16v21.929688c0 39.300781 5.726562 78.328124 17.023438 115.992187 4.632812 15.421875 6.976562 31.414063 6.976562 47.535156 0 19.335938-3.351562 38.359375-9.953125 56.519531l-11.125 30.574219c-7.25 19.929688-10.921875 40.785157-10.921875 61.992188v57.457031c0 22.054688 17.945312 40 40 40h104v-32h21.871094l46.777344 26.726562c6.023437 3.441407 12.886718 5.273438 19.847656 5.273438h199.503906c22.054688 0 40-17.945312 40-40v-69.519531c0-19.183594-13.679688-35.703125-32.511719-39.296875zm-3 15.71875c11.3125 2.160156 19.511719 12.066406 19.511719 23.578125v29.519531h-88c-19.3125 0-35.472656 13.769531-39.191406 32h-16.808594v-1.511719c0-37.082031 12.71875-73.160156 35.71875-102.167969 7.351562 2.472657 14.898438 4.519532 22.640625 6zm-284.488281-26.902344h-48.449219c-3.703125 0-7.421875-.871094-10.734375-2.527344l-54.144531-27.082031c6.097656-18.398437 9.328125-37.503906 9.328125-56.933594 0-3.160156-.183594-6.3125-.34375-9.457031h.34375c0-61.304688 15.488281-122.144531 44.769531-176h7.917969l27.3125 27.3125 27.3125-27.3125h29.519531c-29.273437 18.425781-48.832031 50.9375-48.832031 88v24c0 13.230469 10.769531 24 24 24h9.222656l8.53125 51.136719c4.375 26.238281 15.117188 51.359375 31.070313 72.625 17.023437 22.703125 39.734375 40.796875 65.664062 52.328125l30.824219 13.695312c-6.023438 18.191406-9.3125 37.304688-9.3125 56.703125v1.511719h-53.871094l-50.128906-28.640625v-43.359375c0-22.054688-17.945312-40-40-40zm33.441406-136h47.480469c.8125 8.089844 2.140625 16.113281 4.101563 24h-47.582032zm-1.441406-48v-32h16v32zm32-32h16v32h-16zm16-16h-48c-8.824219 0-16 7.175781-16 16v32c0 8.824219 7.175781 16 16 16h48v15.105469c0 .292969.023438.597656.03125.894531h-72.03125c-4.414062 0-8-3.585938-8-8v-24c0-45.824219 35.214844-83.535156 80-87.59375zm79.007812 270.800781-30.023437-13.34375c-1.878906-.832031-3.703125-1.769531-5.542969-2.679687l29.804688-35.769532c8.488281 5.878907 17.496094 11 26.976562 15.257813-8.511718 11.367187-15.621094 23.613281-21.214844 36.535156zm-18.496093-61.519531-31.246094 37.503906c-9.425781-6.007812-18.175781-13.023437-26.058594-20.960937l42.671875-30.480469c4.617188 4.945312 9.488282 9.601562 14.632813 13.9375zm-25.039063-26.160156-42.945312 30.671875c-.96875-1.207031-1.976563-2.394531-2.910156-3.632813-6.695313-8.929687-12.320313-18.625-16.882813-28.800781l53.296875-11.847656c2.953125 4.710937 6.089844 9.257812 9.441406 13.609375zm-17.5625-28.183594-50.980468 11.328125c-2.3125-7.113281-4.167969-14.378906-5.394532-21.753906l-1.421875-8.511719h49.773438c2.289062 6.464844 4.96875 12.785156 8.023437 18.9375zm-241.910156-242.9375h240l.015625 32h-99.328125l-20.6875 20.6875-20.6875-20.6875h-99.3125zm16 69.929688v-21.929688h50.847656c-19.238281 37.375-32.214844 77.734375-38.433594 119.222656-8.238281-31.773437-12.414062-64.429687-12.414062-97.292968zm1.953125 256.09375 7.414063-20.390626 52.296874 26.152344c5.527344 2.75 11.71875 4.214844 17.886719 4.214844h48.449219c13.230469 0 24 10.769531 24 24v40h-160v-17.457031c0-19.335938 3.351562-38.359375 9.953125-56.519531zm194.640625 134.808593-50.464844-28.832031h-42.128906v32h-88c-13.230469 0-24-10.769531-24-24v-24h165.871094l56 32h90.9375c1.214844 5.945312 3.855468 11.328125 7.390625 16h-103.703125c-4.167969 0-8.289063-1.097656-11.902344-3.167969zm211.40625 3.167969h-64c-13.230469 0-24-10.769531-24-24s10.769531-24 24-24h88v24c0 13.230469-10.769531 24-24 24zm0 0"></path><path d="m368 448h16v16h-16zm0 0"></path><path d="m48 368h16v32h-16zm0 0"></path><path d="m80 368h16v32h-16zm0 0"></path><path d="m112 368h16v32h-16zm0 0"></path><path d="m144 368h16v32h-16zm0 0"></path></svg>