<svg xmlns="http://www.w3.org/2000/svg" height="499pt" viewBox="-1 0 499 499.312" width="499pt"><path d="m80.15625 327.96875h16v-38.769531l-32.703125-38.144531-12.136719 10.425781 28.839844 33.648437zm0 0"></path><path d="m32.15625 224.328125c0 6.929687 1.816406 13.777344 5.238281 19.792969l13.90625-7.921875c-2.058593-3.613281-3.144531-7.710938-3.144531-11.871094zm0 0"></path><path d="m496.15625 174.625c0-14.039062-9.558594-25.785156-22.472656-29.386719 4.121094-5.328125 6.472656-11.765625 6.472656-18.613281 0-16.882812-13.746094-30.625-30.625-30.625-6.847656 0-13.289062 2.351562-18.617188 6.472656-3.597656-12.914062-15.34375-22.472656-29.382812-22.472656-8.175781 0-15.871094 3.183594-21.65625 8.96875l-13.085938 13.085938c-3.738281-12.695313-15.367187-22.054688-29.257812-22.054688-8.175781 0-15.871094 3.183594-21.65625 8.96875l-59.71875 59.71875v-52.6875c0-17.648438-14.351562-32-32-32-5.855469 0-11.273438 1.695312-16 4.449219v-4.449219c0-17.648438-14.351562-32-32-32-5.855469 0-11.273438 1.695312-16 4.449219v-4.449219c0-17.648438-14.351562-32-32-32s-32 14.351562-32 32v4.449219c-4.726562-2.753907-10.144531-4.449219-16-4.449219-17.648438 0-32 14.351562-32 32v24h-8c-22.054688 0-40 17.945312-40 40v96.328125c0 17.167969 6.160156 33.808594 17.335938 46.847656l30.664062 35.785157v109.039062h-16v48h140.6875l35.3125 35.3125 35.3125-35.3125-8-8 50.824219-50.824219c8.757812-8.761719 20.359375-14.433593 32.648437-15.96875l20.421875-2.542969c15.808594-1.976562 30.710938-9.265624 41.976563-20.527343l65.847656-65.847657c5.785156-5.792968 8.96875-13.480468 8.96875-21.664062 0-13.890625-9.359375-25.519531-22.054688-29.257812l53.085938-53.085938c5.785156-5.785156 8.96875-13.472656 8.96875-21.65625zm-466.511719 86.152344c-8.695312-10.152344-13.488281-23.097656-13.488281-36.449219v-96.328125c0-13.230469 10.769531-24 24-24h8v96h16v-136c0-8.824219 7.175781-16 16-16s16 7.175781 16 16v104h16v-136c0-8.824219 7.175781-16 16-16s16 7.175781 16 16v136h16v-104c0-8.824219 7.175781-16 16-16s16 7.175781 16 16v104h16v-72c0-8.824219 7.175781-16 16-16s16 7.175781 16 16v68.6875l-16.480469 16.480469c-9.710937 9.703125-16.40625 21.910156-19.375 35.296875l-7.921875 35.605468c-2.304687 10.417969-7.511718 19.90625-15.0625 27.457032l-61.160156 61.160156-8-8-35.3125 35.3125 48 48h-60.6875v-114.960938zm18.511719 187.222656v-16h92.6875l16 16zm160 28.6875-108.6875-108.6875 12.6875-12.6875 108.6875 108.6875zm267.71875-291.71875-129.375 129.375 11.3125 11.3125 61.65625-61.65625h6.0625c8.066406 0 14.625 6.558594 14.625 14.625 0 3.847656-1.558594 7.621094-4.28125 10.34375l-65.847656 65.847656c-8.757813 8.757813-20.359375 14.429688-32.648438 15.96875l-20.421875 2.550782c-15.808593 1.976562-30.714843 9.265624-41.976562 20.527343l-50.824219 50.824219-92.6875-92.6875 61.167969-61.167969c9.710937-9.703125 16.40625-21.910156 19.375-35.296875l7.921875-35.605468c2.300781-10.417969 7.511718-19.90625 15.0625-27.457032l92.191406-92.191406c2.71875-2.722656 6.488281-4.28125 10.34375-4.28125 8.066406 0 14.625 6.558594 14.625 14.625 0 3.847656-1.558594 7.621094-4.28125 10.34375l-73.375 73.375 11.3125 11.3125 105.375-105.375c2.71875-2.722656 6.488281-4.28125 10.34375-4.28125 8.066406 0 14.625 6.558594 14.625 14.625 0 3.847656-1.558594 7.621094-4.28125 10.34375l-105.375 105.375 11.3125 11.3125 121.375-121.375c2.71875-2.722656 6.488281-4.28125 10.34375-4.28125 8.066406 0 14.625 6.558594 14.625 14.625 0 3.847656-1.558594 7.621094-4.28125 10.34375l-121.375 121.375 11.3125 11.3125 105.375-105.375c2.71875-2.722656 6.488281-4.28125 10.34375-4.28125 8.066406 0 14.625 6.558594 14.625 14.625 0 3.855469-1.558594 7.621094-4.28125 10.34375zm0 0"></path><path d="m159.742188 346.34375 16.058593-16.058594 11.316407 11.3125-16.0625 16.058594zm0 0"></path><path d="m227.621094 259.023438c-3.609375 16.335937-11.800782 31.25-23.671875 43.128906l-20.167969 20.167968 11.3125 11.3125 20.167969-20.167968c14.03125-14.03125 23.710937-31.664063 27.980469-50.96875l4.625-20.777344-15.625-3.488281zm0 0"></path></svg>