<svg xmlns="http://www.w3.org/2000/svg" xmlns:xlink="http://www.w3.org/1999/xlink" id="Layer_1" x="0px" y="0px" viewBox="0 0 512 512" style="enable-background:new 0 0 512 512;" xml:space="preserve">
<g>
	<g>
		<path d="M469.333,303.729v-5.063c0-85.809-50.247-161.577-128.573-195.405l0.531-6.376c0.25-2.969-0.75-5.917-2.771-8.104    c-2.021-2.198-4.875-3.448-7.854-3.448h-37.935C285.328,72.642,271.717,64,256,64s-29.328,8.642-36.732,21.333h-37.935    c-2.979,0-5.833,1.25-7.854,3.448c-2.021,2.188-3.021,5.135-2.771,8.104l0.531,6.374    C92.923,137.083,42.667,212.845,42.667,298.667v5.063C14.108,313.977,0,326.293,0,341.333C0,381.521,119.646,448,256,448    s256-66.479,256-106.667C512,326.293,497.892,313.977,469.333,303.729z M64,298.667c0-74.708,42.581-140.591,109.156-172.409    l8.219,98.628c0.458,5.573,5.125,9.781,10.604,9.781c0.313,0,0.604-0.01,0.917-0.042c5.854-0.49,10.229-5.635,9.729-11.51    l-9.708-116.448h20.417V288c0,5.896,4.771,10.667,10.667,10.667s10.667-4.771,10.667-10.667V106.667    c0-11.76,9.563-21.333,21.333-21.333s21.333,9.573,21.333,21.333V288c0,5.896,4.771,10.667,10.667,10.667    s10.667-4.771,10.667-10.667V106.667h20.417l-9.708,116.448c-0.5,5.875,3.875,11.021,9.729,11.51    c0.313,0.031,0.604,0.042,0.917,0.042c5.479,0,10.146-4.208,10.604-9.781l8.219-98.628C405.427,158.07,448,223.961,448,298.667    v25.896c-16.833,9.188-78.833,38.104-192,38.104c-112.583,0-175.021-28.958-192-38.135V298.667z M256,426.667    c-134.646,0-234.667-65.344-234.667-85.333c0-1.822,4.471-7.736,21.333-14.772v4.105c0,3.563,1.792,6.896,4.75,8.875    C50.146,341.354,115.708,384,256,384s205.854-42.646,208.583-44.458c2.958-1.979,4.75-5.313,4.75-8.875v-4.107    c16.863,7.036,21.333,12.952,21.333,14.773C490.667,361.323,390.646,426.667,256,426.667z"></path>
	</g>
</g>
<g>
</g>
<g>
</g>
<g>
</g>
<g>
</g>
<g>
</g>
<g>
</g>
<g>
</g>
<g>
</g>
<g>
</g>
<g>
</g>
<g>
</g>
<g>
</g>
<g>
</g>
<g>
</g>
<g>
</g>
</svg>