<svg viewBox="0 0 66 65" fill="none" xmlns="http://www.w3.org/2000/svg">
    <g clip-path="url(#clip0_68_1888)">
        <path d="M61.9066 35.8493C62.1776 34.24 62.3167 32.5947 62.3167 30.9537C62.3167 24.002 59.8474 17.2698 55.3636 11.9972C55.0228 11.5967 54.4222 11.5481 54.0214 11.8887C53.6209 12.2294 53.5722 12.8303 53.9129 13.2308C58.1042 18.1595 60.4124 24.4536 60.4124 30.9539C60.4124 32.0495 60.3453 33.1471 60.2157 34.2331C59.5186 33.6684 58.7636 33.163 57.9538 32.7297C57.95 32.7276 57.9462 32.7262 57.9424 32.7243C57.87 31.1425 57.1513 29.7269 56.0447 28.7351C55.5005 23.0416 52.8645 17.7672 48.6194 13.8806C44.3392 9.96152 38.7921 7.80345 33 7.80345C27.1873 7.80345 21.6255 9.97498 17.3396 13.918C13.1165 17.8033 10.4991 23.06 9.95648 28.734C8.84933 29.7257 8.13014 31.1417 8.05765 32.7241C8.05384 32.726 8.05003 32.7275 8.04622 32.7294C7.23639 33.1627 6.4814 33.6681 5.7843 34.2328C5.65468 33.1468 5.58765 32.0493 5.58765 30.9536C5.58765 23.6316 8.43901 16.7478 13.6165 11.5703C18.7939 6.39287 25.6777 3.5415 33 3.5415C39.637 3.5415 46.0333 5.93762 51.0105 10.2884C51.4063 10.6344 52.0079 10.594 52.354 10.1982C52.7002 9.80232 52.6597 9.20082 52.2637 8.85475C46.9395 4.20052 40.0981 1.63721 33 1.63721C25.169 1.63721 17.807 4.68675 12.27 10.2238C6.73289 15.761 3.68335 23.1231 3.68335 30.9537C3.68335 32.5946 3.82224 34.2399 4.09341 35.8493C1.81384 38.4182 0.5 41.7661 0.5 45.3197C0.5 50.5949 3.39148 55.4191 8.04622 57.9099C8.05003 57.912 8.05384 57.9132 8.05765 57.9151C8.19641 60.9425 10.702 63.3627 13.7629 63.3627H16.1849C19.3346 63.3627 21.8971 60.8003 21.8971 57.6507V42.8886C21.8971 42.3626 21.4709 41.9364 20.9449 41.9364C20.4189 41.9364 19.9928 42.3626 19.9928 42.8886V57.6507C19.9928 59.7502 18.2846 61.4584 16.1849 61.4584H13.7629C11.6634 61.4584 9.95521 59.7502 9.95521 57.6507V32.9883C9.95521 30.8886 11.6634 29.1804 13.7629 29.1804H16.1849C18.2846 29.1804 19.9928 30.8886 19.9928 32.9883V38.6153C19.9928 39.1413 20.4189 39.5675 20.9449 39.5675C21.4709 39.5675 21.8971 39.1413 21.8971 38.6153V32.9883C21.8971 29.8386 19.3345 27.2761 16.1849 27.2761H13.7629C13.1581 27.2761 12.5753 27.3714 12.0277 27.5464C13.6775 17.4287 22.6098 9.70774 33 9.70774C43.5516 9.70774 52.3329 17.2829 53.9735 27.5469C53.4256 27.3716 52.8423 27.2761 52.237 27.2761H49.8149C46.6652 27.2761 44.1028 29.8387 44.1028 32.9883V57.6507C44.1028 60.3478 46.0176 62.7005 48.6559 63.2448C49.1712 63.3506 49.6744 63.0194 49.7808 62.5046C49.8871 61.9896 49.5557 61.486 49.0407 61.3797C47.2829 61.0171 46.007 59.4489 46.007 57.6507V32.9883C46.007 30.8886 47.7151 29.1804 49.8148 29.1804H52.2368C54.3364 29.1804 56.0445 30.8886 56.0445 32.9883V57.6507C56.0445 59.4806 54.7412 61.0539 52.9456 61.3915C52.4288 61.4887 52.0885 61.9865 52.1858 62.5032C52.2719 62.9606 52.6715 63.2795 53.1204 63.2795C53.1788 63.2795 53.2381 63.2742 53.2975 63.263C55.9059 62.7725 57.8219 60.5461 57.9427 57.915C57.9463 57.9131 57.9501 57.912 57.9537 57.9099C62.6085 55.4191 65.5 50.5949 65.5 45.3197C65.5 41.7661 64.1862 38.4182 61.9066 35.8493ZM2.4043 45.3197C2.4043 41.0965 4.54435 37.2079 8.05104 34.9376V55.7017C4.54435 53.4314 2.4043 49.543 2.4043 45.3197ZM57.949 55.7018V34.9376C61.4557 37.2081 63.5957 41.0965 63.5957 45.3197C63.5957 49.543 61.4557 53.4314 57.949 55.7018Z" fill="#F96436" />
    </g>
    <defs>
        <clipPath id="clip0_68_1888">
            <rect width="65" height="65" fill="white" transform="translate(0.5)" />
        </clipPath>
    </defs>
</svg>
