<svg xmlns="http://www.w3.org/2000/svg" height="496pt" viewBox="0 0 496 496" width="496pt"><path d="m392 112h-288c-22.054688 0-40 17.945312-40 40v48c0 22.054688 17.945312 40 40 40h62.03125c18.382812 0 34.335938-12.457031 38.800781-30.304688 4.960938-19.839843 22.710938-33.695312 43.167969-33.695312s38.207031 13.863281 43.167969 33.710938c4.464843 17.832031 20.417969 30.289062 38.800781 30.289062h62.03125c22.054688 0 40-17.945312 40-40v-48c0-22.054688-17.945312-40-40-40zm24 88c0 13.230469-10.769531 24-24 24h-62.03125c-11.023438 0-20.601562-7.480469-23.28125-18.175781-6.742188-26.984375-30.878906-45.824219-58.6875-45.824219s-51.945312 18.839844-58.695312 45.832031c-2.671876 10.695313-12.25 18.167969-23.273438 18.167969h-62.03125c-13.230469 0-24-10.769531-24-24v-48c0-13.230469 10.769531-24 24-24h288c13.230469 0 24 10.769531 24 24zm0 0"></path><path d="m472 128h-12.199219c-2.753906-7.734375-6.738281-14.886719-11.800781-21.152344v-2.847656c0-37.558594-28.929688-68.457031-65.671875-71.679688l-3.535156-14.144531c-2.671875-10.695312-12.25-18.175781-23.289063-18.175781h-215.007812c-11.03125 0-20.609375 7.480469-23.289063 18.175781l-3.535156 14.144531c-36.742187 3.222657-65.671875 34.121094-65.671875 71.679688v2.847656c-5.0625 6.265625-9.046875 13.417969-11.800781 21.152344h-12.199219c-13.230469 0-24 10.769531-24 24v48c0 13.230469 10.769531 24 24 24h12.199219c4.992187 14.046875 14.183593 26.078125 26.113281 34.59375 2.808594 9.980469 6.113281 19.78125 9.703125 29.4375-35.351563.304688-64.015625 29.128906-64.015625 64.535156 0 17.242188 6.71875 33.464844 18.910156 45.65625l62.859375 62.855469c12.199219 12.203125 28.414063 18.921875 45.664063 18.921875 14.0625 0 27.695312-4.710938 38.8125-13.070312 12.019531 17.238281 40.152344 29.070312 73.753906 29.070312s61.734375-11.832031 73.753906-29.070312c11.117188 8.359374 24.75 13.070312 38.8125 13.070312 17.25 0 33.464844-6.71875 45.65625-18.910156l62.855469-62.859375c12.203125-12.199219 18.921875-28.414063 18.921875-45.664063 0-35.488281-28.785156-64.367187-64.222656-64.550781 3.582031-9.609375 6.871094-19.351563 9.6875-29.246094 12.039062-8.523437 21.320312-20.632812 26.34375-34.769531h12.191406c13.230469 0 24-10.769531 24-24v-48c0-13.230469-10.769531-24-24-24zm-331.503906-112h215.015625c3.679687 0 6.871093 2.496094 7.761719 6.0625l2.480468 9.9375h-235.507812l2.480468-9.9375c.898438-3.566406 4.089844-6.0625 7.769532-6.0625zm-20.496094 32h256c26.488281 0 48.6875 18.503906 54.480469 43.246094-11.144531-7.078125-24.320313-11.246094-38.480469-11.246094h-288c-14.160156 0-27.335938 4.167969-38.480469 11.246094 5.792969-24.742188 27.992188-43.246094 54.480469-43.246094zm-96 160c-4.40625 0-8-3.59375-8-8v-48c0-4.40625 3.59375-8 8-8h8.472656c-.296875 2.632812-.472656 5.296875-.472656 8v48c0 2.703125.175781 5.367188.472656 8zm48.566406 96c12.976563 0 25.167969 5.054688 34.34375 14.222656l62.859375 62.855469c7.566407 7.570313 12.34375 17.53125 13.71875 28.128906l-7.199219 17.273438c-5.265624 6.449219-8.289062 13.726562-8.289062 21.519531 0 1.070312.152344 2.113281.257812 3.167969-.304687.28125-.59375.601562-.90625.871093l-131.34375-131.34375c8.914063-10.207031 21.984376-16.695312 36.558594-16.695312zm227.128906 74.464844c-8.71875-20.9375-29.015624-34.464844-51.695312-34.464844s-42.976562 13.527344-51.6875 34.464844l-3.289062 7.894531c-3.070313-6.085937-7.0625-11.710937-11.933594-16.582031l-.691406-.6875 28.441406-56.890625c7.472656-14.925781 22.472656-24.199219 39.160156-24.199219s31.6875 9.273438 39.160156 24.199219l28.441406 56.890625-.691406.6875c-4.871094 4.871094-8.855468 10.496094-11.925781 16.582031zm-4.605468 30.542968c-13.136719-5.664062-29.320313-9.007812-47.089844-9.007812-17.761719 0-33.953125 3.34375-47.089844 9.007812l10.167969-24.390624c6.226563-14.953126 20.722656-24.617188 36.921875-24.617188s30.695312 9.664062 36.929688 24.617188zm-194 40.769532-62.859375-62.855469c-9.183594-9.179687-14.230469-21.386719-14.230469-34.355469 0-6.292968 1.238281-12.292968 3.433594-17.824218l125.839844 125.84375c-5.59375 2.207031-11.601563 3.414062-17.839844 3.414062-12.976563 0-25.167969-5.054688-34.34375-14.222656zm146.910156 30.222656c-37.710938 0-64-16.863281-64-32s26.289062-32 64-32 64 16.863281 64 32-26.289062 32-64 32zm209.777344-93.089844-62.855469 62.859375c-9.1875 9.175781-21.378906 14.230469-34.355469 14.230469-6.140625 0-12.167968-1.230469-17.796875-3.457031l125.796875-125.800781c2.195313 5.53125 3.433594 11.53125 3.433594 17.824218 0 12.96875-5.046875 25.175782-14.222656 34.34375zm2.214844-66.214844-131.335938 131.335938c-.320312-.269531-.601562-.589844-.914062-.871094.105468-1.046875.257812-2.089844.257812-3.160156 0-7.792969-3.023438-15.070312-8.296875-21.511719l-7.191406-17.265625c1.375-10.605468 6.136719-20.558594 13.710937-28.132812l62.855469-62.859375c9.1875-9.175781 21.378906-14.230469 34.355469-14.230469 14.574218 0 27.644531 6.488281 36.558594 16.695312zm-54.238282-30.207031c-10.464844 2.96875-20.074218 8.519531-27.976562 16.421875l-50.25 50.25-26.054688-52.113281c-10.191406-20.382813-30.679687-33.046875-53.472656-33.046875s-43.28125 12.664062-53.472656 33.046875l-26.054688 52.113281-50.25-50.25c-7.964844-7.964844-17.664062-13.542968-28.222656-16.484375-2.863281-7.152343-5.488281-14.449219-7.902344-21.859375 6.910156 2.21875 14.261719 3.433594 21.902344 3.433594h62.03125c33.097656 0 61.824219-22.425781 69.847656-54.535156 1.394532-5.578125 6.378906-9.464844 12.121094-9.464844s10.726562 3.886719 12.121094 9.464844c8.03125 32.109375 36.75 54.535156 69.847656 54.535156h62.03125c7.550781 0 14.824219-1.183594 21.664062-3.34375-2.417968 7.382812-5.046874 14.671875-7.910156 21.832031zm42.246094-90.488281c0 30.878906-25.121094 56-56 56h-62.03125c-25.746094 0-48.082031-17.441406-54.328125-42.414062-3.167969-12.714844-14.535156-21.585938-27.640625-21.585938s-24.472656 8.871094-27.640625 21.585938c-6.246094 24.972656-28.582031 42.414062-54.328125 42.414062h-62.03125c-30.878906 0-56-25.121094-56-56v-48c0-30.878906 25.121094-56 56-56h288c30.878906 0 56 25.121094 56 56zm32 0c0 4.40625-3.59375 8-8 8h-8.472656c.296875-2.632812.472656-5.296875.472656-8v-48c0-2.703125-.175781-5.367188-.472656-8h8.472656c4.40625 0 8 3.59375 8 8zm0 0"></path><path d="m256 432c0 4.417969-3.582031 8-8 8s-8-3.582031-8-8 3.582031-8 8-8 8 3.582031 8 8zm0 0"></path><path d="m256 464c0 4.417969-3.582031 8-8 8s-8-3.582031-8-8 3.582031-8 8-8 8 3.582031 8 8zm0 0"></path><path d="m216 448c0 4.417969-3.582031 8-8 8s-8-3.582031-8-8 3.582031-8 8-8 8 3.582031 8 8zm0 0"></path><path d="m296 448c0 4.417969-3.582031 8-8 8s-8-3.582031-8-8 3.582031-8 8-8 8 3.582031 8 8zm0 0"></path></svg>