<svg xmlns="http://www.w3.org/2000/svg" xmlns:xlink="http://www.w3.org/1999/xlink" id="Layer_1" x="0px" y="0px" viewBox="0 0 512 512" style="enable-background:new 0 0 512 512;" xml:space="preserve">
<g>
	<g>
		<path d="M338.467,458.166h-18.324c-4.744,0-8.591,3.846-8.591,8.591c0,4.744,3.846,8.591,8.591,8.591h18.324    c4.744,0,8.591-3.846,8.591-8.591C347.058,462.012,343.212,458.166,338.467,458.166z"></path>
	</g>
</g>
<g>
	<g>
		<path d="M457.593,458.166h-39.174L302.75,13.287C300.717,5.464,293.651,0,285.568,0h-59.135c-8.083,0-15.149,5.464-17.182,13.287    L93.581,458.166H54.407c-9.79,0-17.754,7.964-17.754,17.754v18.327c0,9.79,7.964,17.754,17.754,17.754h403.186    c9.79,0,17.754-7.964,17.754-17.754v-18.327C475.347,466.13,467.383,458.166,457.593,458.166z M192.635,145.468h72.529    c4.744,0,8.591-3.846,8.591-8.591s-3.846-8.591-8.591-8.591h-68.062L225.878,17.61c0.065-0.252,0.293-0.428,0.554-0.428h59.135    c0.261,0,0.489,0.176,0.554,0.428l28.776,110.677h-13.084c-4.744,0-8.591,3.846-8.591,8.591s3.846,8.591,8.591,8.591h17.551    l9.828,37.799H182.807L192.635,145.468z M144.985,328.734h138.506c4.744,0,8.591-3.846,8.591-8.591    c0-4.744-3.846-8.591-8.591-8.591H149.452l28.887-111.105h155.319l28.887,111.105H320.14c-4.744,0-8.591,3.846-8.591,8.591    c0,4.744,3.846,8.591,8.591,8.591h46.874l9.828,37.799H135.158L144.985,328.734z M458.166,494.246    c0,0.316-0.257,0.573-0.573,0.573H54.407c-0.316,0-0.573-0.257-0.573-0.573v-18.327c0-0.316,0.257-0.573,0.573-0.573H283.49    c4.744,0,8.591-3.846,8.591-8.591c0-4.744-3.846-8.591-8.591-8.591H111.333l19.357-74.452h250.618l19.357,74.452h-25.545    c-4.744,0-8.591,3.846-8.591,8.591c0,4.744,3.846,8.591,8.591,8.591h82.472c0.316,0,0.573,0.257,0.573,0.573V494.246z"></path>
	</g>
</g>
<g>
</g>
<g>
</g>
<g>
</g>
<g>
</g>
<g>
</g>
<g>
</g>
<g>
</g>
<g>
</g>
<g>
</g>
<g>
</g>
<g>
</g>
<g>
</g>
<g>
</g>
<g>
</g>
<g>
</g>
</svg>