<svg xmlns="http://www.w3.org/2000/svg" viewBox="0 0 368.93 384">
	<path d="M-786,124.75c-13.42-5.49-26.74-11.19-39-19-43.92-27.91-72.6-66.45-82.34-118.16a155.12,155.12,0,0,1-2.4-28c-.1-24.24,0-48.49,0-72.74,0-7.7,1.35-9.57,8.47-12.19q56.45-20.77,112.86-41.65a15.79,15.79,0,0,1,11.91.07c13.65,5.23,27.43,10.12,41.1,15.28,2.91,1.1,4.14,1.12,5.07-2.49,8.3-32.13,37.23-53.4,70.42-52.06,32.06,1.29,60.39,26.95,64.72,58.6,5.17,37.76-18.48,71.07-55.74,78.31-3.57.7-4.54,2.18-4.52,5.7.09,14.49.53,29-1.23,43.43a164.26,164.26,0,0,1-13,46.73c-2,4.6-6.27,6.4-10.4,4.73s-6.09-6.21-4.09-11A163.11,163.11,0,0,0-675-7.68a135.66,135.66,0,0,0,3.48-28.94c.09-23.49,0-47,.12-70.49,0-3.21-1.13-4.57-4-5.64q-51.75-18.9-103.39-38.07a10.29,10.29,0,0,0-7.6,0q-51.66,19.13-103.4,38.06c-3.16,1.15-4.07,2.77-4.05,6,.13,22.37,0,44.75.08,67.12.12,35.91,12.15,67.55,34.8,95.18,19.79,24.13,44.77,41.11,73.78,52.34a6.86,6.86,0,0,0,5.37-.1,180.67,180.67,0,0,0,57.22-35c2.36-2.16,4.85-4.1,8.31-3.39a7.79,7.79,0,0,1,6.13,5.48c1,3.19,0,5.9-2.34,8.17A166.31,166.31,0,0,1-732,100.46a199,199,0,0,1-42.39,22.22c-1.63.63-3.21,1.38-4.81,2.07ZM-655.42-102c0,4.5.12,9,0,13.5-.11,3.32,1,4,4.26,3.27,27-6.38,44.89-33.16,40.29-60.41-4.1-24.3-25.43-43.3-48.79-44.55-29.18-1.55-50.59,18.5-55.73,41.11-.77,3.38-.12,4.84,3.22,6,16.35,5.84,32.61,11.92,48.9,17.93,6.24,2.3,7.83,4.55,7.88,11.13C-655.4-110-655.43-106-655.42-102Z" transform="translate(909.82 259.25)" />
	<path d="M-660-259.25c3.61,2.74,4.74,6.44,4.62,10.85-.17,6,0,12-.07,18a20.67,20.67,0,0,1-.44,4.45,7.85,7.85,0,0,1-8.08,6.38,7.76,7.76,0,0,1-7.33-7.26c-.23-8.47-.17-17,0-25.44,0-3.09,2.13-5.21,4.56-6.93Z" transform="translate(909.82 259.25)" />
	<path d="M-686.91-61.94c-.24,11.74.63,25.74-1.26,39.67-3.69,27.34-15.18,51.06-33.27,71.65-15.41,17.55-34.14,30.61-55.4,40.18a12.47,12.47,0,0,1-11.11.13c-40.43-18.45-69.86-47.18-84.21-90A124.32,124.32,0,0,1-878.28-39c-.17-17.61-.06-35.23,0-52.85,0-6.55,1.47-8.71,7.49-10.94q41.83-15.44,83.66-30.86a11.88,11.88,0,0,1,8.7-.16Q-736-118-693.4-102.46c4.46,1.63,6.5,4.78,6.49,9.43Zm-16,4.34c0-9.78-.2-18.15.09-26.52.12-3.75-1.18-5.5-4.68-6.77-24-8.66-47.84-17.51-71.73-26.35a8.87,8.87,0,0,0-6.53-.05Q-822-103.88-858.2-90.65c-3.06,1.11-4.22,2.63-4.18,5.94.17,15.37.09,30.74.07,46.1a103.31,103.31,0,0,0,3.79,28.49C-847.25,29.37-821.26,56-785,73.64c2.06,1,3.82.53,5.7-.37a143.24,143.24,0,0,0,22-12.84c27.34-19.67,45.8-45.29,52.56-78.72C-702.08-31.77-703.18-45.42-702.93-57.6Z" transform="translate(909.82 259.25)" />
	<path d="M-582.69-48.24a7.31,7.31,0,0,1-5.56-2.35c-5.49-5.46-11-10.87-16.39-16.43-3.57-3.69-3.66-8.13-.57-11.38s7.62-3.55,11.35,0c5.81,5.46,11.4,11.17,17,16.91,2.43,2.52,3.25,5.58,1.58,8.95A7.3,7.3,0,0,1-582.69-48.24Z" transform="translate(909.82 259.25)" />
	<path d="M-719.75-201.29a7.41,7.41,0,0,1-4,7.12c-2.78,1.54-5.73,1.58-8.09-.45a187.66,187.66,0,0,1-19.28-19.28c-2.48-2.85-1.64-7.27,1.08-9.87s7-3.17,9.94-.68a214.38,214.38,0,0,1,18.83,18.7A5.86,5.86,0,0,1-719.75-201.29Z" transform="translate(909.82 259.25)" />
	<path d="M-574.46-218.28a9.94,9.94,0,0,1-3,6.5c-5.49,5.46-11,10.95-16.56,16.28-3.49,3.31-7.89,3.16-11.05,0a7.42,7.42,0,0,1-.14-10.79c5.75-6.07,11.7-12,17.75-17.73,2.47-2.36,5.63-2.57,8.73-1A7.94,7.94,0,0,1-574.46-218.28Z" transform="translate(909.82 259.25)" />
	<path d="M-561.06-129.27c-4,0-8,.1-12,0-4.7-.15-7.76-3.34-7.73-7.82a7.33,7.33,0,0,1,7.51-7.61q12.33-.21,24.66,0a7.65,7.65,0,0,1,7.68,7.57,7.86,7.86,0,0,1-7.84,7.85C-552.84-129.16-556.95-129.27-561.06-129.27Z" transform="translate(909.82 259.25)" />
	<path d="M-693.52,44.23a7.7,7.7,0,0,1,8,7.64,8.06,8.06,0,0,1-8,7.82,8.06,8.06,0,0,1-7.83-7.58A7.77,7.77,0,0,1-693.52,44.23Z" transform="translate(909.82 259.25)" />
	<path d="M-819.38-31.49c2.83-.22,4.9,1.29,6.81,3.21,5.38,5.41,10.87,10.7,16.12,16.22,2,2.1,3.15,1.84,5.07-.1C-776-27.7-760.49-43.13-745-58.6c1.79-1.78,3.58-3.48,6.32-3.66,3.31-.21,6,1,7.57,3.84a7.63,7.63,0,0,1-.52,8.49,20.53,20.53,0,0,1-2.51,2.77q-26.24,26.25-52.48,52.49c-5.47,5.45-9.21,5.53-14.7.12C-809-2.1-816.63-9.68-824.12-17.38c-4-4.11-4.15-8.64-.74-11.95A7,7,0,0,1-819.38-31.49Z" transform="translate(909.82 259.25)" />
</svg>
