<svg width="175" height="52" viewBox="0 0 175 52" fill="none" xmlns="http://www.w3.org/2000/svg">
    <g clip-path="url(#clip0_112_881)">
        <path d="M97.7164 32.7561H78.1612C77.3317 32.7449 76.5066 32.6325 75.7036 32.4212C74.823 32.2016 73.987 31.828 73.2331 31.3172C72.4668 30.7972 71.8198 30.1165 71.3356 29.3211C70.8035 28.4116 70.5392 27.3668 70.5741 26.31V9.74493C70.5728 9.43244 70.6444 9.12406 70.7832 8.845C70.9242 8.56387 71.1191 8.31398 71.3563 8.10988C71.6112 7.89119 71.9046 7.72341 72.2211 7.61544C72.5702 7.49552 72.9368 7.43626 73.3054 7.44016H97.7164V12.034H75.9953V26.3205C75.979 26.5786 76.0212 26.837 76.1187 27.076C76.2163 27.315 76.3666 27.5282 76.5581 27.6992C76.9333 28.0148 77.4823 28.1735 78.2051 28.1753H97.7164V32.7561ZM95.2769 22.4068H78.1612V17.7894H95.2769V22.4068Z" fill="white" />
        <path d="M137.741 32.7561H132.281V17.6743L122.67 31.9974C122.427 32.3668 122.082 32.6554 121.678 32.8267C121.248 33.0167 120.782 33.1129 120.313 33.1092C119.857 33.1129 119.406 33.0166 118.991 32.8267C118.595 32.6504 118.259 32.3625 118.02 31.9974L108.368 17.6743V32.7561H102.947V9.39176C102.944 8.86635 103.142 8.36033 103.499 7.97907C103.885 7.55635 104.391 7.26639 104.947 7.14977C105.235 7.08988 105.529 7.06877 105.822 7.08699C106.109 7.10395 106.393 7.15757 106.667 7.24657C106.931 7.33143 107.181 7.45671 107.407 7.61805C107.628 7.77285 107.818 7.96699 107.97 8.19097L120.31 26.3623L132.652 8.19097C132.982 7.73557 133.449 7.40059 133.982 7.2361C134.551 7.04887 135.158 7.01906 135.742 7.14977C136.294 7.27131 136.796 7.56065 137.18 7.97907C137.543 8.35731 137.745 8.86442 137.743 9.39176L137.741 32.7561Z" fill="white" />
        <path d="M173.534 30.4434C173.536 30.7616 173.465 31.0759 173.327 31.3617C173.188 31.644 172.992 31.8936 172.751 32.0942C172.495 32.309 172.202 32.474 171.887 32.5808C171.538 32.7007 171.171 32.76 170.802 32.7561H151.25C150.114 32.7471 148.988 32.5382 147.922 32.1387C147.356 31.9247 146.814 31.6493 146.306 31.3172C145.794 30.9821 145.333 30.5712 144.941 30.0981C144.535 29.6034 144.214 29.0426 143.993 28.4395C143.748 27.7576 143.628 27.0358 143.639 26.31V13.8784C143.643 13.4168 143.702 12.9574 143.815 12.5101C144.073 11.4525 144.599 10.4814 145.341 9.69261C145.766 9.23824 146.254 8.84875 146.789 8.5363C147.4 8.17983 148.055 7.90879 148.738 7.73054C149.556 7.52169 150.396 7.42144 151.24 7.43231H173.273V12.034H151.25C150.669 11.9943 150.094 12.1629 149.623 12.5101C149.43 12.687 149.279 12.9061 149.182 13.1508C149.084 13.3956 149.043 13.6595 149.061 13.9228V26.3205C149.046 26.5778 149.091 26.835 149.19 27.0722C149.289 27.3094 149.441 27.5204 149.634 27.6887C150.099 28.0397 150.671 28.2122 151.25 28.1753H168.115V22.4199H153.689V17.7894H170.802C171.172 17.7855 171.539 17.8474 171.887 17.9725C172.203 18.0866 172.496 18.2577 172.751 18.4774C172.99 18.6803 173.185 18.9294 173.327 19.2099C173.465 19.4866 173.535 19.7923 173.534 20.102V30.4434Z" fill="white" />
        <path d="M74.5289 43.1105C74.5308 43.3036 74.5039 43.4959 74.4489 43.6808C74.4002 43.8391 74.3298 43.9897 74.2398 44.1282C74.1554 44.2531 74.0527 44.3643 73.9352 44.4578C73.823 44.5449 73.7018 44.6195 73.5738 44.6802C73.4525 44.7368 73.3252 44.779 73.1943 44.8058C73.0748 44.833 72.9528 44.847 72.8303 44.8476H68.7592V43.7776H72.8303C72.9172 43.7832 73.0042 43.7699 73.0856 43.7388C73.1671 43.7077 73.2411 43.6594 73.3027 43.5971C73.4209 43.4642 73.4822 43.2892 73.4731 43.1105C73.4731 43.0212 73.4574 42.9326 73.4266 42.8489C73.4002 42.7689 73.357 42.6957 73.2999 42.6343C73.2429 42.5729 73.1734 42.5247 73.0962 42.4931C73.0137 42.4617 72.9262 42.4458 72.838 42.446H70.4114C70.2236 42.4433 70.0373 42.4115 69.8589 42.3519C69.6579 42.2905 69.471 42.1891 69.3091 42.0536C69.1314 41.9069 68.987 41.7231 68.8857 41.5147C68.7751 41.2581 68.718 40.9811 68.718 40.7011C68.718 40.4211 68.7751 40.1441 68.8857 39.8875C68.9884 39.68 69.1326 39.4965 69.3091 39.3486C69.4715 39.2133 69.6582 39.1111 69.8589 39.0477C70.0377 38.9901 70.2238 38.9593 70.4114 38.9562H74.0049V40.0262H70.4036C70.3167 40.0208 70.2297 40.0346 70.1486 40.0667C70.0675 40.0988 69.9942 40.1483 69.9338 40.2119C69.8178 40.347 69.7577 40.5222 69.766 40.7011C69.7568 40.8793 69.817 41.0541 69.9338 41.1877C69.9952 41.2495 70.0688 41.2975 70.1498 41.3286C70.2307 41.3597 70.3172 41.3732 70.4036 41.3682H72.838C72.9597 41.3718 73.0808 41.3876 73.1994 41.4153C73.3306 41.4448 73.4579 41.4896 73.5789 41.5487C73.7069 41.6101 73.8274 41.6865 73.9378 41.7763C74.0559 41.8701 74.1588 41.9822 74.2424 42.1086C74.3335 42.2445 74.4039 42.3936 74.4515 42.5507C74.5046 42.7324 74.5307 42.921 74.5289 43.1105Z" fill="white" />
        <path d="M81.1093 44.3087C81.1106 44.3824 81.0965 44.4555 81.068 44.5232C81.0427 44.5876 81.0039 44.6456 80.9544 44.6933C80.9058 44.7422 80.8478 44.7805 80.784 44.8058C80.7187 44.8339 80.6484 44.8482 80.5775 44.8476H78.1973C77.9682 44.8476 77.7398 44.823 77.5158 44.7744C77.2852 44.7242 77.0609 44.6479 76.8472 44.5468C76.63 44.4404 76.4263 44.3077 76.2405 44.1517C76.0479 43.99 75.8807 43.7995 75.7449 43.5867C75.5952 43.3565 75.482 43.104 75.4092 42.8385C75.3244 42.533 75.2835 42.2166 75.2879 41.8993V38.9483H76.3412V41.8993C76.3344 42.1596 76.3764 42.4188 76.4651 42.6632C76.5383 42.8553 76.6449 43.0326 76.7801 43.1864C76.9009 43.3186 77.0421 43.4299 77.1983 43.516C77.3364 43.5897 77.4817 43.6484 77.632 43.6913C77.75 43.7266 77.871 43.7511 77.9934 43.7646L78.1973 43.7776H80.0534V38.9483H81.1093V44.3087Z" fill="white" />
        <path d="M89.1095 44.8476H88.0459V41.3342L86.1743 44.6723C86.1321 44.7549 86.0652 44.8217 85.9832 44.8633C85.9038 44.9065 85.8153 44.9298 85.7251 44.9313C85.6346 44.932 85.5456 44.9085 85.4669 44.8633C85.3868 44.82 85.3212 44.7536 85.2785 44.6723L83.3836 41.3342V44.8476H82.3278V39.4061C82.3251 39.2873 82.3624 39.171 82.4336 39.0765C82.5038 38.9811 82.604 38.9129 82.7176 38.8829C82.7734 38.8699 82.8307 38.8647 82.888 38.8672C82.9435 38.8726 82.9981 38.8849 83.0506 38.9039C83.1031 38.9245 83.1519 38.9536 83.1952 38.9902C83.2389 39.0294 83.2764 39.0753 83.3062 39.1262L85.707 43.3591L88.1104 39.1262C88.1682 39.0238 88.2595 38.9451 88.3686 38.9039C88.4768 38.8589 88.5966 38.8516 88.7093 38.8829C88.822 38.9146 88.9213 38.983 88.9918 39.0776C89.0623 39.1721 89.1 39.2876 89.0992 39.4061L89.1095 44.8476Z" fill="white" />
        <path d="M91.3995 44.8476H90.354V38.9483H91.4073L91.3995 44.8476Z" fill="white" />
        <path d="M98.4521 44.3924C98.4536 44.4655 98.4386 44.538 98.4082 44.6043C98.383 44.6694 98.3443 44.7283 98.2946 44.777C98.2461 44.8248 98.1892 44.8629 98.1268 44.8895C98.0613 44.9167 97.9912 44.9309 97.9203 44.9313C97.8531 44.9309 97.7865 44.9176 97.7241 44.8921C97.6562 44.868 97.5951 44.8276 97.546 44.7744L93.6892 40.6933V44.8476H92.6333V39.4062C92.6324 39.2993 92.6649 39.1949 92.7263 39.1079C92.7836 39.0201 92.8641 38.9503 92.9586 38.9065C93.0571 38.8675 93.1642 38.8567 93.2684 38.8751C93.3679 38.8973 93.4581 38.9503 93.5265 39.0268L97.3834 43.1027V38.9483H98.4392L98.4521 44.3924Z" fill="white" />
        <path d="M100.742 44.8476H99.686V38.9483H100.742V44.8476Z" fill="white" />
        <path d="M107.57 43.1105C107.573 43.3037 107.546 43.4962 107.49 43.6808C107.444 43.84 107.373 43.9909 107.281 44.1282C107.198 44.2537 107.096 44.365 106.979 44.4578C106.866 44.5444 106.745 44.6189 106.617 44.6802C106.496 44.7361 106.369 44.7782 106.238 44.8058C106.119 44.833 105.996 44.847 105.874 44.8476H101.8V43.7776H105.874C105.961 43.7827 106.048 43.7692 106.129 43.7381C106.21 43.707 106.284 43.659 106.346 43.5971C106.463 43.4632 106.523 43.2887 106.514 43.1105C106.514 43.0215 106.499 42.9331 106.47 42.8489C106.442 42.7692 106.398 42.6961 106.341 42.6344C106.285 42.5729 106.216 42.5247 106.14 42.4931C106.057 42.4619 105.97 42.446 105.882 42.446H103.453C103.265 42.4431 103.078 42.4113 102.9 42.3519C102.7 42.2893 102.513 42.1881 102.35 42.0536C102.173 41.9067 102.03 41.7229 101.929 41.5147C101.819 41.2581 101.762 40.9811 101.762 40.7011C101.762 40.4211 101.819 40.1441 101.929 39.8875C102.031 39.6802 102.175 39.4967 102.35 39.3486C102.513 39.2144 102.7 39.1123 102.9 39.0477C103.079 38.9903 103.265 38.9595 103.453 38.9562H107.046V40.0262H103.445C103.358 40.0208 103.272 40.0347 103.191 40.0668C103.11 40.0989 103.037 40.1484 102.978 40.2119C102.86 40.346 102.798 40.5217 102.807 40.7011C102.802 40.7896 102.815 40.8782 102.844 40.9617C102.873 41.0452 102.919 41.1221 102.978 41.1877C103.038 41.2494 103.112 41.2974 103.192 41.3285C103.273 41.3596 103.359 41.3732 103.445 41.3682H105.882C106.138 41.376 106.391 41.4374 106.623 41.5487C106.751 41.6101 106.871 41.6865 106.981 41.7763C107.098 41.8709 107.2 41.9829 107.284 42.1086C107.375 42.2445 107.445 42.3936 107.493 42.5507C107.546 42.7324 107.572 42.921 107.57 43.1105Z" fill="white" />
        <path d="M113.647 40.0262H111.324V44.8555H110.268V40.0262H107.945V38.9562H113.655L113.647 40.0262Z" fill="white" />
        <path d="M120.24 40.9313C120.244 41.1526 120.214 41.3731 120.153 41.5853C120.097 41.766 120.016 41.9371 119.91 42.0929C119.812 42.2354 119.694 42.3624 119.559 42.4696C119.431 42.5738 119.292 42.6616 119.143 42.7312C119.003 42.7979 118.856 42.8471 118.704 42.8777C118.568 42.9079 118.428 42.9236 118.289 42.9248L120.493 44.8528H118.862L116.66 42.9248H115.911V41.8574H118.299C118.424 41.8485 118.547 41.8194 118.663 41.7711C118.768 41.7292 118.864 41.668 118.947 41.5906C119.027 41.5118 119.09 41.4163 119.13 41.3107C119.176 41.1923 119.197 41.0661 119.195 40.9392V40.2642C119.198 40.217 119.191 40.1697 119.174 40.1256C119.162 40.0976 119.143 40.074 119.117 40.0575C119.095 40.042 119.069 40.0321 119.042 40.0288H115.48V44.8581H114.424V39.4872C114.424 39.4156 114.437 39.3446 114.463 39.278C114.49 39.2137 114.528 39.1551 114.576 39.1053C114.623 39.0551 114.681 39.0158 114.744 38.9902C114.811 38.9613 114.883 38.947 114.956 38.9483H118.962C119.169 38.941 119.374 38.9859 119.559 39.0791C119.706 39.1549 119.836 39.26 119.941 39.3881C120.047 39.5163 120.126 39.6648 120.173 39.8247C120.217 39.9617 120.239 40.1046 120.24 40.2485V40.9313Z" fill="white" />
        <path d="M127.412 42.4617C127.415 42.8012 127.353 43.1379 127.229 43.4532C127.115 43.7482 126.943 44.0165 126.724 44.2415C126.504 44.4665 126.241 44.6434 125.951 44.7613C125.643 44.8847 125.314 44.9469 124.983 44.9444H123.555C123.223 44.9472 122.893 44.885 122.584 44.7613C122.294 44.6424 122.03 44.4643 121.81 44.2381C121.587 44.0144 121.412 43.7475 121.294 43.4532C121.167 43.1385 121.104 42.8015 121.108 42.4617V41.3342C121.105 40.9954 121.168 40.6592 121.294 40.3453C121.41 40.0504 121.586 39.7832 121.81 39.5605C122.031 39.3349 122.294 39.157 122.584 39.0373C122.893 38.9124 123.223 38.8502 123.555 38.8542H124.983C125.314 38.8505 125.643 38.9127 125.951 39.0373C126.241 39.1575 126.504 39.3354 126.725 39.5605C126.949 39.7832 127.125 40.0504 127.242 40.3453C127.365 40.6598 127.427 40.9957 127.425 41.3342L127.412 42.4617ZM126.356 41.3342C126.359 41.1385 126.325 40.944 126.255 40.7613C126.197 40.5932 126.102 40.4403 125.978 40.3132C125.855 40.1862 125.705 40.0882 125.54 40.0262C125.363 39.9563 125.173 39.9217 124.983 39.9241H123.555C123.363 39.9215 123.172 39.9561 122.992 40.0262C122.83 40.0895 122.681 40.1856 122.556 40.3087C122.432 40.4345 122.335 40.5851 122.272 40.7508C122.205 40.934 122.172 41.1283 122.174 41.3237V42.4513C122.172 42.6467 122.205 42.841 122.272 43.0242C122.334 43.1899 122.431 43.3403 122.555 43.4652C122.679 43.5902 122.828 43.6869 122.992 43.7488C123.172 43.8189 123.363 43.8536 123.555 43.8509H124.975C125.167 43.8534 125.358 43.8187 125.538 43.7488C125.701 43.6855 125.849 43.5894 125.974 43.4663C126.097 43.3404 126.193 43.1898 126.255 43.0242C126.325 42.8415 126.359 42.647 126.356 42.4513V41.3342Z" fill="white" />
        <path d="M134.049 43.1105C134.057 43.3056 134.035 43.5008 133.982 43.6887C133.935 43.8478 133.865 43.9987 133.773 44.136C133.689 44.2616 133.586 44.3729 133.468 44.4657C133.356 44.5528 133.235 44.6273 133.107 44.688C132.986 44.7447 132.858 44.7868 132.727 44.8136C132.608 44.8409 132.486 44.8549 132.363 44.8555H128.279V43.7855H132.35C132.438 43.7907 132.525 43.7774 132.607 43.7463C132.689 43.7152 132.763 43.667 132.825 43.605C132.942 43.4711 133.002 43.2965 132.993 43.1184C132.993 43.0293 132.978 42.9409 132.949 42.8568C132.921 42.777 132.877 42.704 132.82 42.6422C132.763 42.5807 132.694 42.5325 132.616 42.501C132.534 42.4693 132.446 42.4534 132.358 42.4539H129.931C129.744 42.4509 129.557 42.4192 129.379 42.3597C129.178 42.2972 128.992 42.1959 128.829 42.0615C128.652 41.9146 128.509 41.7308 128.408 41.5226C128.296 41.2664 128.238 40.9892 128.238 40.709C128.238 40.4287 128.296 40.1515 128.408 39.8954C128.51 39.688 128.653 39.5045 128.829 39.3564C128.992 39.2222 129.179 39.1202 129.379 39.0556C129.558 38.9981 129.744 38.9673 129.931 38.964H133.517V40.0262H129.924C129.837 40.0208 129.75 40.0347 129.669 40.0667C129.588 40.0988 129.514 40.1483 129.454 40.2119C129.338 40.347 129.278 40.5222 129.286 40.7011C129.277 40.8793 129.337 41.0541 129.454 41.1877C129.515 41.2495 129.589 41.2975 129.67 41.3286C129.751 41.3597 129.837 41.3732 129.924 41.3682H132.361C132.482 41.372 132.603 41.3877 132.722 41.4153C132.853 41.4456 132.98 41.4904 133.102 41.5487C133.229 41.6107 133.35 41.6871 133.46 41.7763C133.577 41.8709 133.679 41.9829 133.762 42.1086C133.854 42.2446 133.924 42.3936 133.972 42.5507C134.025 42.7324 134.051 42.9211 134.049 43.1105Z" fill="white" />
        <path d="M143.183 43.1105C143.185 43.3035 143.159 43.4958 143.105 43.6808C143.056 43.8391 142.986 43.9897 142.896 44.1282C142.812 44.2531 142.709 44.3643 142.591 44.4578C142.479 44.5449 142.358 44.6195 142.23 44.6802C142.109 44.7361 141.981 44.7782 141.851 44.8058C141.731 44.833 141.609 44.847 141.487 44.8476H137.415V43.7776H141.487C141.573 43.7832 141.66 43.7699 141.742 43.7388C141.823 43.7077 141.897 43.6594 141.959 43.5971C142.017 43.5312 142.062 43.4543 142.091 43.3708C142.12 43.2873 142.132 43.1988 142.127 43.1105C142.128 43.0214 142.113 42.9328 142.083 42.8489C142.055 42.7698 142.012 42.697 141.956 42.6344C141.899 42.5734 141.829 42.5253 141.752 42.4931C141.67 42.4617 141.582 42.4458 141.494 42.446H139.065C138.878 42.4433 138.693 42.4115 138.515 42.3519C138.314 42.2899 138.126 42.1886 137.963 42.0536C137.786 41.9067 137.642 41.7229 137.542 41.5147C137.431 41.2581 137.374 40.9811 137.374 40.7011C137.374 40.4211 137.431 40.1441 137.542 39.8875C137.644 39.6802 137.787 39.4967 137.963 39.3486C138.126 39.2138 138.314 39.1117 138.515 39.0477C138.693 38.9901 138.878 38.9593 139.065 38.9562H142.659V40.0262H139.057C138.971 40.0208 138.884 40.0347 138.803 40.0668C138.723 40.0989 138.65 40.1484 138.59 40.2119C138.473 40.3463 138.413 40.522 138.422 40.7011C138.417 40.7894 138.429 40.8779 138.458 40.9614C138.487 41.0449 138.532 41.1218 138.59 41.1877C138.651 41.2494 138.724 41.2974 138.805 41.3285C138.885 41.3596 138.971 41.3732 139.057 41.3682H141.494C141.751 41.376 142.003 41.4374 142.235 41.5487C142.363 41.6101 142.484 41.6865 142.594 41.7763C142.711 41.8709 142.813 41.9829 142.896 42.1086C142.987 42.2445 143.058 42.3936 143.105 42.5507C143.158 42.7324 143.184 42.921 143.183 43.1105Z" fill="white" />
        <path d="M149.773 44.8476H148.717V43.4009H145.005V44.8476H143.952V41.8993C143.947 41.492 144.021 41.0877 144.169 40.709C144.306 40.3594 144.513 40.042 144.776 39.7766C145.04 39.5111 145.354 39.3031 145.7 39.1655C146.069 39.0183 146.464 38.9445 146.861 38.9483H149.241C149.383 38.9482 149.518 39.0046 149.618 39.1053C149.667 39.1551 149.705 39.2137 149.732 39.278C149.759 39.3444 149.773 39.4155 149.773 39.4873V44.8476ZM145.005 42.3309H148.717V40.0262H146.861L146.657 40.0392C146.535 40.0527 146.414 40.0772 146.296 40.1125C146.144 40.1552 145.997 40.2139 145.857 40.2878C145.7 40.3707 145.558 40.4814 145.439 40.6148C145.304 40.7688 145.197 40.946 145.124 41.138C145.035 41.3824 144.993 41.6416 145 41.9019L145.005 42.3309Z" fill="white" />
        <path d="M156.284 40.0262H152.053V44.8555H151V39.4872C150.999 39.4156 151.012 39.3446 151.038 39.278C151.065 39.2137 151.104 39.1551 151.152 39.1053C151.199 39.0551 151.256 39.0158 151.32 38.9902C151.386 38.9613 151.459 38.947 151.531 38.9483H156.284V40.0262ZM155.814 42.446H152.476V41.3604H155.814V42.446Z" fill="white" />
        <path d="M162.397 44.8476H158.589C158.427 44.8449 158.266 44.8185 158.112 44.7691C157.935 44.7144 157.772 44.6256 157.629 44.5075C157.476 44.3793 157.35 44.2208 157.26 44.0419C157.156 43.8236 157.105 43.5831 157.113 43.3407V39.4872C157.112 39.4153 157.126 39.3441 157.154 39.278C157.18 39.2138 157.217 39.1552 157.265 39.1053C157.312 39.0551 157.369 39.0158 157.433 38.9902C157.5 38.9613 157.572 38.947 157.644 38.9483H162.397V40.0262H158.168V43.3538C158.164 43.4121 158.172 43.4705 158.191 43.5258C158.209 43.581 158.239 43.632 158.277 43.6756C158.321 43.7145 158.372 43.7443 158.427 43.7631C158.483 43.782 158.541 43.7896 158.6 43.7855H162.397V44.8476ZM161.925 42.4382H158.589V41.3604H161.925V42.4382Z" fill="white" />
        <path d="M168.678 40.0262H166.354V44.8555H165.296V40.0262H162.973V38.9562H168.678V40.0262Z" fill="white" />
        <path d="M175 40.9235C175.003 41.1449 174.972 41.3654 174.91 41.5775C174.853 41.7577 174.772 41.9287 174.667 42.085C174.57 42.2282 174.451 42.3553 174.316 42.4617C174.188 42.5648 174.048 42.6526 173.9 42.7234C173.761 42.7901 173.615 42.8393 173.464 42.8699C173.326 42.8994 173.186 42.9143 173.046 42.9143H172.62V44.8528H171.556V42.9039H171.135C170.996 42.9038 170.856 42.8889 170.72 42.8594C170.568 42.8292 170.421 42.78 170.281 42.7129C170.132 42.6433 169.993 42.5555 169.865 42.4513C169.73 42.3448 169.611 42.2177 169.514 42.0746C169.406 41.9143 169.323 41.7377 169.269 41.5513C169.207 41.3401 169.176 41.1204 169.179 40.8999V38.9248H170.234V40.8999C170.232 41.0285 170.254 41.1563 170.299 41.2767C170.34 41.3837 170.402 41.4809 170.482 41.5618C170.563 41.6432 170.659 41.7057 170.766 41.7449C170.887 41.7882 171.015 41.8094 171.143 41.8077H173.046C173.146 41.792 173.249 41.7711 173.356 41.7449C173.459 41.7195 173.558 41.6742 173.645 41.6115C173.735 41.5425 173.809 41.4529 173.859 41.3499C173.921 41.2096 173.951 41.0564 173.944 40.9026V38.9274H175V40.9235Z" fill="white" />
        <path d="M60.1705 29.3604V32.2695C60.1705 32.5327 60.0675 32.7851 59.8841 32.9715C59.7007 33.1578 59.4519 33.2629 59.1921 33.2636H0.980989C0.720815 33.2636 0.471298 33.1588 0.287327 32.9724C0.103357 32.786 3.41505e-06 32.5331 3.41505e-06 32.2695V29.3604C-0.000337195 29.2297 0.0248042 29.1003 0.0739827 28.9795C0.123161 28.8588 0.195407 28.749 0.286568 28.6567C0.377729 28.5643 0.486007 28.4911 0.605179 28.4412C0.724351 28.3914 0.852068 28.3659 0.980989 28.3663H2.8397C2.98543 28.3658 3.12585 28.3108 3.23401 28.2118C3.34217 28.1128 3.41043 27.9768 3.42571 27.83C3.9296 23.209 5.59435 18.7961 8.2609 15.013C10.9275 11.2298 14.5067 8.20279 18.6568 6.22106L23.8534 24.293L25.676 24.8842L21.6849 5.36037C21.6591 5.25049 21.6333 5.13538 21.6127 5.02289C21.228 2.78352 22.0773 0 25.9755 0H34.1434C38.0338 0 38.8857 2.76782 38.4959 5.00458C38.4753 5.12492 38.452 5.24526 38.4236 5.36037L34.4429 24.8842L36.2655 24.293L41.457 6.19752C45.6187 8.17581 49.2095 11.2039 51.8855 14.9916C54.5614 18.7794 56.2329 23.2 56.7397 27.83C56.7543 27.9766 56.8221 28.1126 56.9298 28.2116C57.0375 28.3106 57.1776 28.3657 57.3231 28.3663H59.1921C59.3208 28.3663 59.4483 28.392 59.5671 28.442C59.686 28.492 59.794 28.5652 59.8849 28.6576C59.9758 28.7499 60.0478 28.8595 60.0968 28.9801C60.1458 29.1007 60.1709 29.2299 60.1705 29.3604Z" fill="white" />
        <path d="M30.0929 35.7829C35.3007 35.7829 40.5077 35.7829 45.7138 35.7829C48.6258 35.7829 50.3141 37.3734 50.3218 40.102C50.3218 42.6832 50.3218 45.2644 50.3218 47.8457C50.3218 50.3283 48.5767 51.9738 45.959 51.9843C42.8405 51.9948 39.7229 51.9948 36.6061 51.9843C34.2234 51.9843 32.6925 50.76 32.2614 48.5363C32.1117 47.7776 32.0368 47.0059 31.8871 46.2446C31.8184 45.8252 31.5995 45.4463 31.2722 45.1803C30.945 44.9143 30.5324 44.78 30.1135 44.8031C29.1584 44.8031 28.5233 45.2819 28.3323 46.2237C28.1593 47.0791 28.0741 47.9477 27.9089 48.8031C27.5346 50.6527 25.9237 51.9608 23.9385 51.9765C20.5825 52.0026 17.2265 52.0078 13.8705 51.9765C11.7433 51.9529 9.94139 50.2655 9.90783 48.2564C9.86308 45.3857 9.86308 42.5141 9.90783 39.6416C9.94139 37.4362 11.7588 35.8012 14.1725 35.7907C19.475 35.7698 24.7827 35.7855 30.0929 35.7829Z" fill="white" />
        <path d="M7.13022 44.9444H5.16308C5.01904 44.9444 4.87992 44.8913 4.77163 44.795C4.66335 44.6988 4.59328 44.5659 4.57449 44.4212L3.45927 36.4683C3.44704 36.3828 3.45312 36.2956 3.4771 36.2127C3.50108 36.1298 3.5424 36.0531 3.59824 35.9878C3.65409 35.9225 3.72315 35.8702 3.80073 35.8344C3.87832 35.7986 3.9626 35.7801 4.04786 35.7802H7.13022C7.20841 35.7799 7.28589 35.7952 7.35823 35.8253C7.43057 35.8554 7.49633 35.8996 7.55174 35.9556C7.60714 36.0115 7.65111 36.0779 7.68111 36.1511C7.71111 36.2243 7.72655 36.3027 7.72655 36.3819V44.3427C7.72655 44.4219 7.71111 44.5004 7.68111 44.5736C7.65111 44.6467 7.60714 44.7132 7.55174 44.7691C7.49633 44.825 7.43057 44.8693 7.35823 44.8994C7.28589 44.9294 7.20841 44.9448 7.13022 44.9444Z" fill="white" />
        <path d="M53.0404 44.9444H54.9869C55.1312 44.9445 55.2707 44.8915 55.3794 44.7953C55.4881 44.699 55.5587 44.5661 55.5781 44.4212L56.7011 36.4604C56.7133 36.3749 56.7072 36.2878 56.6832 36.2049C56.6592 36.1219 56.6179 36.0452 56.5621 35.98C56.5062 35.9147 56.4372 35.8624 56.3596 35.8265C56.282 35.7907 56.1977 35.7723 56.1125 35.7724H53.0404C52.8827 35.7724 52.7314 35.8357 52.6197 35.9485C52.5079 36.0612 52.4448 36.2143 52.4441 36.3741V44.3427C52.4448 44.5025 52.5079 44.6556 52.6197 44.7683C52.7314 44.8811 52.8827 44.9444 53.0404 44.9444Z" fill="white" />
    </g>
    <defs>
        <clipPath id="clip0_112_881">
            <rect width="175" height="52" fill="white" />
        </clipPath>
    </defs>
</svg>
